<?xml version="1.0" encoding="UTF-8"?>
<svg id="Layer_2" data-name="Layer 2" xmlns="http://www.w3.org/2000/svg" viewBox="0 0 2267.28 1363.18">
  <defs>
    <style>
      .cls-1 {
        fill: #f2f2f2;
      }

      .cls-2 {
        fill: #6996e0;
      }

      .cls-3 {
        fill: #f2685d;
      }

      .cls-4 {
        fill: #fff;
      }

      .cls-5 {
        fill: #ffb957;
      }

      .cls-6 {
        fill: #7ca4e6;
      }

      .cls-7, .cls-8 {
        fill: #90b3ed;
      }

      .cls-9 {
        fill: #729adb;
      }

      .cls-10 {
        fill: #bd6655;
      }

      .cls-11 {
        fill: #cbdcf9;
      }

      .cls-12 {
        fill: #c57363;
      }

      .cls-13 {
        fill: #acc1e6;
      }

      .cls-14 {
        fill: #e45449;
      }

      .cls-15 {
        fill: #222;
      }

      .cls-16 {
        fill: #07181f;
      }

      .cls-17 {
        fill: #3565bf;
      }

      .cls-18 {
        fill: #2a87df;
      }

      .cls-19 {
        fill: #4b494a;
      }

      .cls-8 {
        opacity: .5;
      }
    </style>
  </defs>
  <g>
    <path class="cls-7" d="m752.06,226.29c0,90.64-73.47,164.12-164.11,164.12s-164.13-73.48-164.14-164.12c.02-90.63,73.47-164.12,164.14-164.12s164.11,73.48,164.11,164.12Z"/>
    <path class="cls-4" d="m587.95,56.07h0c-93.85,0-170.21,76.37-170.22,170.22,0,93.86,76.37,170.22,170.22,170.22h0c93.86,0,170.21-76.36,170.21-170.22s-76.36-170.22-170.21-170.22Zm6.1,97.89c20.4-.43,40.16-2.94,58.43-7.35,6.25,21.88,10.06,47,10.56,73.58h-68.99v-66.23Zm0-12.18v-72.93c22.27,3.97,42.13,29.39,54.78,66.12-17.11,4.06-35.63,6.4-54.78,6.81Zm-12.2-72.93v72.93c-19.17-.41-37.69-2.75-54.8-6.81,12.65-36.75,32.53-62.15,54.8-66.12Zm0,85.11v66.23h-69.02c.5-26.57,4.31-51.7,10.56-73.58,18.28,4.41,38.05,6.92,58.46,7.35Zm-81.21,66.23h-70.58c1.4-36.51,15.23-69.88,37.39-95.98,12.68,7.84,27.51,14.3,43.84,19.16-6.38,22.77-10.17,48.84-10.65,76.82Zm0,12.2c.48,27.98,4.27,54.07,10.66,76.82-16.34,4.87-31.16,11.33-43.84,19.18-22.16-26.12-36-59.48-37.39-95.99h70.58Zm12.19,0h69.02v66.23c-20.41.43-40.18,2.95-58.46,7.36-6.25-21.9-10.06-47.02-10.56-73.59Zm69.02,78.43v72.9c-22.27-3.95-42.14-29.37-54.8-66.11,17.11-4.04,35.63-6.4,54.8-6.79Zm12.2,72.9v-72.9c19.16.39,37.67,2.75,54.78,6.79-12.65,36.73-32.52,62.15-54.78,66.11Zm0-85.1v-66.23h68.99c-.5,26.57-4.31,51.7-10.56,73.59-18.27-4.41-38.04-6.94-58.43-7.36Zm81.19-66.23h70.57c-1.39,36.51-15.22,69.88-37.38,95.99-12.67-7.85-27.51-14.31-43.84-19.18,6.39-22.75,10.18-48.84,10.66-76.82Zm0-12.2c-.48-27.98-4.26-54.05-10.66-76.82,16.33-4.87,31.17-11.33,43.84-19.16,22.16,26.1,35.99,59.47,37.38,95.98h-70.57Zm24.82-105.14c-11.38,6.78-24.58,12.4-39.05,16.72-8.5-25.17-20.33-45.49-34.4-58.69,28.27,7.14,53.53,21.9,73.46,41.98Zm-150.79-41.98c-14.06,13.21-25.91,33.53-34.4,58.69-14.47-4.31-27.67-9.94-39.05-16.72,19.92-20.08,45.18-34.84,73.44-41.98Zm-73.44,264.46c11.38-6.78,24.58-12.39,39.05-16.7,8.48,25.17,20.33,45.45,34.4,58.68-28.27-7.12-53.53-21.9-73.45-41.98Zm150.77,41.98c14.07-13.21,25.9-33.51,34.4-58.69,14.48,4.33,27.68,9.94,39.06,16.72-19.93,20.08-45.18,34.85-73.46,41.98Z"/>
  </g>
  <g>
    <rect class="cls-13" x="328.6" y="1214.25" width="392.79" height="33.73"/>
    <rect class="cls-13" x="328.6" y="1162.88" width="392.79" height="33.73"/>
    <rect class="cls-13" x="328.6" y="1111.52" width="392.79" height="33.73"/>
  </g>
  <g>
    <g>
      <path class="cls-13" d="m11.9,355.94c9.98-7.75,23.96,2.84,31.54,9.27,10.88,9.24,19.34,21.24,27.35,32.73,13.31,19.08,25.7,38.86,37.45,58.94h0c-19.51-12.66-38.69-25.96-57.13-40.14-11.1-8.54-22.69-17.55-31.42-28.85-6.07-7.86-16-22.32-7.79-31.93h0Z"/>
      <path class="cls-13" d="m7.26,458.67c4.33-11.87,21.8-10.35,31.63-8.94,14.13,2.03,27.68,7.69,40.58,13.14,21.42,9.06,42.44,19.22,63.07,29.96h0c-23.26-.33-46.58-1.37-69.74-3.57-13.94-1.32-28.55-2.77-41.95-7.7-9.33-3.43-25.42-10.38-23.6-22.89h0Z"/>
      <path class="cls-13" d="m51.41,523.18c2.99-12.28,20.52-12.7,30.45-12.38,14.27.46,28.36,4.58,41.78,8.58,22.3,6.64,44.31,14.41,66,22.8h0c-23.15,2.24-46.44,3.79-69.7,4.16-14,.23-28.68.4-42.55-3.01-9.65-2.37-26.41-7.51-25.98-20.14h0Z"/>
      <path class="cls-13" d="m166.19,643.43c2.99-12.28,20.52-12.7,30.45-12.38,14.27.45,28.36,4.58,41.78,8.58,22.3,6.64,44.31,14.41,66,22.8h0c-23.15,2.24-46.44,3.79-69.7,4.16-14,.23-28.68.4-42.55-3.01-9.65-2.37-26.41-7.51-25.98-20.14h0Z"/>
      <path class="cls-13" d="m236.81,700.69c2.59-10.64,17.79-11.01,26.4-10.73,12.37.39,24.59,3.97,36.22,7.43,19.33,5.75,38.41,12.49,57.22,19.77h0c-20.07,1.94-40.27,3.28-60.43,3.61-12.14.2-24.86.35-36.88-2.61-8.36-2.06-22.9-6.51-22.53-17.46h0Z"/>
      <path class="cls-13" d="m85.15,584.11c3.25-12.24,24.27-12.18,36.19-11.59,17.13.85,34.15,5.38,50.36,9.75,26.93,7.27,53.54,15.68,79.8,24.7h0c-27.71,1.62-55.61,2.53-83.5,2.27-16.79-.16-34.39-.39-51.12-4.19-11.64-2.65-31.89-8.26-31.72-20.92h0Z"/>
      <path class="cls-13" d="m114.74,356.1c12.58-1.24,18.77,15.16,21.76,24.64,4.29,13.62,5.06,28.28,5.73,42.26,1.11,23.24,1.07,46.58.33,69.83h-.01c-9.77-21.11-18.93-42.58-26.99-64.4-4.85-13.14-9.87-26.93-11.24-41.14-.95-9.89-1.66-27.41,10.4-31.18h.01Z"/>
      <path class="cls-13" d="m177.12,403.21c12.64.16,16.98,17.15,18.9,26.89,2.76,14.01,1.91,28.67,1.03,42.64-1.46,23.22-4.09,46.41-7.4,69.43h-.01c-7.37-22.06-14.11-44.41-19.7-66.99-3.37-13.59-6.83-27.86-6.62-42.13.15-9.93,1.38-27.43,13.79-29.84h.01Z"/>
      <path class="cls-13" d="m291.9,523.46c12.64.16,16.98,17.15,18.9,26.89,2.76,14.01,1.91,28.67,1.03,42.64-1.46,23.22-4.09,46.41-7.4,69.43h-.01c-7.37-22.06-14.11-44.41-19.7-66.99-3.37-13.59-6.83-27.86-6.62-42.13.15-9.93,1.38-27.43,13.79-29.84h.01Z"/>
      <path class="cls-13" d="m345.8,596.67c10.95.14,14.72,14.86,16.39,23.31,2.39,12.15,1.65,24.85.89,36.97-1.27,20.13-3.54,40.24-6.41,60.2h-.01c-6.39-19.13-12.23-38.5-17.08-58.08-2.92-11.78-5.92-24.15-5.74-36.53.13-8.61,1.2-23.78,11.95-25.87h.01Z"/>
      <path class="cls-13" d="m236.42,439.74c12.66.42,17.32,20.91,19.42,32.66,3.02,16.89,2.43,34.48,1.8,51.26-1.04,27.87-3.25,55.7-6.14,83.31h-.01c-7.79-26.65-14.94-53.62-20.95-80.86-3.62-16.39-7.35-33.6-7.4-50.75-.03-11.93.89-32.93,13.27-35.61h.01Z"/>
      <path class="cls-13" d="m412.87,776.05c-1.08,1.03-2.8.99-3.84-.09L100.86,453.08c-1.03-1.08-.99-2.8.09-3.84s2.8-.99,3.84.09l308.17,322.88c1.03,1.08.99,2.8-.09,3.84Z"/>
    </g>
    <g>
      <path class="cls-13" d="m2264.73,864.91c7.52,10.15-3.37,23.9-9.96,31.33-9.48,10.68-21.66,18.87-33.32,26.63-19.36,12.89-39.41,24.84-59.74,36.15h0c13.1-19.23,26.81-38.12,41.39-56.25,8.78-10.91,18.04-22.3,29.53-30.78,7.99-5.9,22.67-15.5,32.1-7.09h0Z"/>
      <path class="cls-13" d="m2162.12,858.03c11.77,4.59,9.87,22.02,8.24,31.82-2.34,14.09-8.29,27.51-14.03,40.28-9.53,21.22-20.14,42.01-31.33,62.4h-.01c.85-23.25,2.4-46.54,5.1-69.64,1.63-13.91,3.4-28.48,8.61-41.77,3.63-9.25,10.93-25.19,23.4-23.09h.01Z"/>
      <path class="cls-13" d="m2096.66,900.76c12.21,3.26,12.25,20.79,11.71,30.71-.77,14.26-5.2,28.25-9.49,41.58-7.12,22.14-15.37,43.98-24.24,65.49h-.01c-1.72-23.2-2.76-46.52-2.63-69.78.08-14,.23-28.68,3.94-42.47,2.58-9.59,8.08-26.24,20.7-25.54h.01Z"/>
      <path class="cls-13" d="m1973.93,1012.87c12.21,3.26,12.25,20.79,11.71,30.71-.77,14.26-5.2,28.25-9.49,41.58-7.12,22.14-15.37,43.98-24.24,65.49h-.01c-1.72-23.2-2.76-46.52-2.63-69.78.08-14,.23-28.68,3.94-42.47,2.58-9.59,8.08-26.24,20.7-25.54h.01Z"/>
      <path class="cls-13" d="m1915.14,1082.23c10.58,2.82,10.62,18.03,10.15,26.63-.67,12.36-4.51,24.5-8.23,36.05-6.18,19.2-13.33,38.13-21.01,56.77h-.01c-1.49-20.11-2.39-40.33-2.28-60.5.07-12.14.2-24.87,3.42-36.82,2.24-8.32,7.01-22.75,17.95-22.14h.01Z"/>
      <path class="cls-13" d="m2035.01,933.15c12.17,3.52,11.65,24.53,10.8,36.43-1.22,17.11-6.12,34.02-10.85,50.13-7.86,26.76-16.84,53.19-26.44,79.24h-.01c-1-27.74-1.3-55.65-.43-83.53.52-16.78,1.14-34.38,5.31-51.02,2.9-11.58,8.96-31.7,21.61-31.26h.01Z"/>
      <path class="cls-13" d="m2262.32,967.72c.97,12.6-15.57,18.44-25.11,21.22-13.71,3.99-28.38,4.44-42.38,4.81-23.25.61-46.59.05-69.82-1.2h0c21.32-9.31,42.98-18.01,64.98-25.58,13.24-4.56,27.14-9.28,41.38-10.34,9.91-.74,27.44-1.06,30.95,11.08h0Z"/>
      <path class="cls-13" d="m2213.85,1029.06c-.43,12.63-17.51,16.6-27.3,18.31-14.07,2.45-28.7,1.28-42.65.09-23.18-1.97-46.31-5.1-69.26-8.91h0c22.22-6.9,44.71-13.15,67.41-18.24,13.66-3.07,28-6.22,42.27-5.7,9.93.36,27.39,1.98,29.53,14.44h0Z"/>
      <path class="cls-13" d="m2091.12,1141.17c-.43,12.63-17.51,16.6-27.3,18.31-14.07,2.45-28.7,1.28-42.65.09-23.18-1.97-46.31-5.1-69.26-8.91h0c22.22-6.9,44.71-13.15,67.41-18.24,13.66-3.07,28-6.22,42.27-5.7,9.93.36,27.39,1.98,29.53,14.44h0Z"/>
      <path class="cls-13" d="m2016.74,1193.46c-.38,10.95-15.18,14.39-23.67,15.87-12.19,2.13-24.88,1.11-36.98.08-20.1-1.71-40.15-4.42-60.04-7.73h0c19.26-5.98,38.76-11.4,58.44-15.82,11.84-2.66,24.28-5.39,36.65-4.94,8.61.32,23.75,1.72,25.6,12.52h0Z"/>
      <path class="cls-13" d="m2176.03,1087.54c-.69,12.65-21.29,16.86-33.08,18.7-16.95,2.65-34.53,1.68-51.29.68-27.84-1.65-55.61-4.47-83.15-7.97h0c26.81-7.21,53.94-13.77,81.3-19.19,16.47-3.26,33.75-6.61,50.9-6.29,11.93.23,32.91,1.61,35.31,14.04h0Z"/>
      <path class="cls-13" d="m1835.94,1256.59c-1.01-1.11-.93-2.82.17-3.83l329.54-301.04c1.11-1.01,2.82-.93,3.83.17,1.01,1.11.93,2.82-.17,3.83l-329.54,301.04c-1.11,1.01-2.82.93-3.83-.17Z"/>
    </g>
    <g>
      <path class="cls-13" d="m916.64.11c12.54-1.59,19.19,14.63,22.44,24.02,4.67,13.49,5.85,28.13,6.92,42.09,1.77,23.2,2.37,46.53,2.28,69.79h-.01c-10.36-20.83-20.12-42.03-28.78-63.62-5.21-12.99-10.62-26.64-12.39-40.81-1.23-9.86-2.43-27.35,9.52-31.46h.01Z"/>
      <path class="cls-13" d="m860.42,86.22c9.76-8.02,24.03,2.17,31.78,8.38,11.14,8.93,19.93,20.69,28.26,31.95,13.84,18.7,26.78,38.12,39.09,57.86h0c-19.85-12.11-39.41-24.86-58.23-38.53-11.33-8.22-23.17-16.9-32.21-27.96-6.29-7.69-16.61-21.86-8.69-31.7h0Z"/>
      <path class="cls-13" d="m865.65,164.21c8.82-9.05,24.13-.5,32.52,4.82,12.06,7.65,22.09,18.36,31.62,28.63,15.82,17.05,30.83,34.93,45.24,53.19h0c-21.07-9.84-41.91-20.35-62.14-31.85-12.17-6.92-24.9-14.24-35.11-24.22-7.1-6.95-18.93-19.89-12.14-30.55h0Z"/>
      <path class="cls-13" d="m903.35,326.11c8.82-9.05,24.13-.5,32.52,4.82,12.06,7.65,22.09,18.36,31.62,28.63,15.82,17.05,30.83,34.93,45.24,53.19h0c-21.07-9.84-41.91-20.35-62.14-31.85-12.17-6.92-24.9-14.24-35.11-24.22-7.1-6.95-18.93-19.89-12.14-30.55h0Z"/>
      <path class="cls-13" d="m935.06,411.32c7.64-7.85,20.92-.44,28.19,4.18,10.45,6.63,19.15,15.92,27.41,24.82,13.72,14.78,26.73,30.28,39.22,46.11h0c-18.27-8.53-36.34-17.64-53.87-27.61-10.55-6-21.59-12.34-30.44-21-6.16-6.02-16.41-17.25-10.52-26.48h0Z"/>
      <path class="cls-13" d="m863.72,233.83c9.02-8.89,27.09,1.85,37.06,8.41,14.32,9.44,26.67,21.99,38.4,34,19.49,19.95,38.14,40.72,56.16,61.84h0c-24.68-12.7-49.17-26.1-73.05-40.5-14.38-8.67-29.42-17.82-41.89-29.6-8.68-8.2-23.27-23.33-16.68-34.15h0Z"/>
      <path class="cls-13" d="m1005.12,52.53c11.46,5.32,8.46,22.6,6.21,32.28-3.23,13.91-10.02,26.93-16.55,39.31-10.85,20.58-22.76,40.65-35.22,60.3h-.01c2.32-23.15,5.34-46.29,9.5-69.18,2.5-13.78,5.19-28.21,11.24-41.14,4.21-9,12.51-24.45,24.81-21.56h.01Z"/>
      <path class="cls-13" d="m1034.89,124.81c10.8,6.56,5.91,23.4,2.61,32.77-4.74,13.47-12.93,25.65-20.79,37.24-13.06,19.25-27.11,37.89-41.67,56.03h-.01c4.87-22.75,10.43-45.42,17.09-67.71,4.01-13.41,8.28-27.46,15.72-39.65,5.18-8.48,15.13-22.91,27.04-18.69h.01Z"/>
      <path class="cls-13" d="m1072.59,286.71c10.8,6.56,5.91,23.4,2.61,32.77-4.74,13.47-12.93,25.65-20.79,37.24-13.06,19.25-27.11,37.89-41.67,56.03h-.01c4.87-22.75,10.43-45.42,17.09-67.71,4.01-13.41,8.28-27.46,15.72-39.65,5.18-8.48,15.13-22.91,27.04-18.69h.01Z"/>
      <path class="cls-13" d="m1081.79,377.16c9.36,5.69,5.12,20.29,2.26,28.41-4.11,11.68-11.21,22.24-18.03,32.28-11.32,16.69-23.51,32.85-36.12,48.58h0c4.22-19.72,9.04-39.38,14.82-58.7,3.48-11.63,7.18-23.81,13.63-34.37,4.49-7.35,13.12-19.87,23.44-16.2h0Z"/>
      <path class="cls-13" d="m1067.38,186.41c10.69,6.8,4.28,26.82.12,38-5.98,16.08-15.44,30.93-24.51,45.06-15.07,23.47-31.12,46.31-47.64,68.61h-.01c6.84-26.91,14.4-53.78,23.07-80.29,5.22-15.96,10.75-32.67,19.43-47.47,6.04-10.29,17.51-27.91,29.53-23.92h.01Z"/>
      <path class="cls-13" d="m1048.35,565.72c-1.46.34-2.92-.57-3.26-2.03l-101.23-434.71c-.34-1.46.57-2.92,2.03-3.26,1.46-.34,2.92.57,3.26,2.03l101.23,434.71c.34,1.46-.57,2.92-2.03,3.26Z"/>
    </g>
    <g>
      <path class="cls-13" d="m2065.57,651.63s.01,0,0,.02c-5.04,9.09-12.99,20.16-24.24,26.87-11.94,7.13-26.45,8.04-39.34,12.68-7.7,2.76-15.66,7.98-20.44,14.71-6.61,9.3-1.29,22.67,10.67,23.03,10.52.3,19.44-8.45,26.93-14.71,12.19-10.14,25.41-16.75,40.83-18.19-7.37,36.08-22.09,70.08-47.94,98.91-26.22,29.25-64.11,53.5-105,46.22-11.32-2.02-21.99-6.68-31.54-13.03-9.55-6.35-17.97-14.39-24.21-24.05-22.52-34.89-14.81-79.21,2.03-114.7.37-.76.73-1.52,1.11-2.27h0s0-.01,0,0c-.75,12.75-.11,26,4.46,37.93,3.43,8.93,10.53,21.84,22.12,18.18,15.06-4.77,16.97-29.58,17.68-42.54.89-16.28-1.65-32.54-4.68-48.48-1.03-5.41-2.1-10.79-3.14-16.17,18.22-18.49,39.73-33.51,62.99-45.86,3.42,6.31,6.13,14.41,4.57,22.84-2.1,11.22-10.39,23.46-7.02,35.21,1.62,5.66,7.54,8.59,12.98,6.46,7.75-3.03,12.93-11.81,15.63-19.21,1.84-5.06,2.8-10.43,2.91-15.8.43-22.29-3.94-28.61,9.41-47.12h0s0,0,0,0h0c22.1-8.71,44.9-15.63,67.35-21.35,4.86,32.61,7.75,66.84,5.88,100.42,0,0,.01,0,0,.02v-.02Z"/>
      <path class="cls-4" d="m1836.3,887.1c-.89-.59-1.13-1.79-.54-2.67l225.9-339.67c.59-.89,1.79-1.13,2.67-.54s1.13,1.79.54,2.67l-225.9,339.67c-.59.89-1.79,1.13-2.67.54Z"/>
      <path class="cls-4" d="m2003.51,635.68c-.54-.36-.89-.99-.86-1.68.04-1.06.94-1.89,2-1.85.35.01,34.85,1.05,64.71-27.59.77-.74,1.98-.71,2.72.06.74.77.71,1.99-.06,2.72-31.1,29.82-66.07,28.72-67.54,28.66-.36-.01-.7-.13-.98-.32Z"/>
      <path class="cls-4" d="m1935.59,737.8c-.33-.22-.59-.54-.74-.94-25.43-69.11-13.89-135.14-13.77-135.8.19-1.05,1.19-1.74,2.24-1.55,1.05.19,1.74,1.19,1.55,2.24-.12.65-11.46,65.69,13.6,133.78.37,1-.14,2.11-1.14,2.47-.6.22-1.24.12-1.73-.2Z"/>
      <path class="cls-4" d="m1888.84,808.1c-.67-.45-1.02-1.29-.79-2.12.28-1.03,1.35-1.63,2.37-1.34,58.16,16.1,138.28-24.77,139.08-25.18.95-.49,2.11-.12,2.6.83.49.94.12,2.11-.83,2.59-3.33,1.72-82.25,41.98-141.87,25.47-.2-.06-.39-.14-.55-.25Z"/>
    </g>
    <g>
      <path class="cls-13" d="m1132.92,877.94c6.72,3.81,12.47,7.94,16.38,11.69,3.93,3.84,6.02,7.24,5.41,9.45-.3,1.1-1.28,1.76-2.79,2.05-1.5.32-3.54.24-5.97-.23-2.44-.47-5.27-1.33-8.38-2.58-1.55-.62-3.17-1.35-4.84-2.15-1.66-.77-3.37-1.63-5.11-2.59-6.97-3.82-13.03-8.34-17.13-12.42-4.09-4.06-6.19-7.63-5.32-9.75.87-2.15,4.48-2.32,9.52-1.12,5.05,1.24,11.5,3.78,18.24,7.65Z"/>
      <path class="cls-13" d="m1133.05,858.55c-3.23,2.29-6.33,4.39-9.21,6.2-2.86,1.9-5.5,3.55-7.86,4.8-4.7,2.49-8.31,3.39-9.93,1.59-1.59-1.75-.83-5.95,2.23-11.16,1.52-2.6,3.63-5.44,6.27-8.29,1.32-1.42,2.76-2.87,4.34-4.25,1.59-1.35,3.29-2.67,5.11-3.93,3.64-2.52,7.34-4.56,10.85-6.12,3.53-1.48,6.89-2.41,9.79-2.9,5.82-.98,9.81-.15,10.61,2.12.82,2.32-1.58,5.62-5.72,9.36-4.15,3.75-10.03,7.92-16.47,12.57Z"/>
      <path class="cls-13" d="m1076.56,864.38c-3.91,6.84-7.47,12.77-10.4,17.29-2.96,4.42-5.54,7.02-7.69,6.21-2.08-.79-3.33-4.98-2.93-11.22.4-6.17,2.56-14.52,7.14-22.35,2.3-3.91,4.92-7.34,7.61-10.2,2.67-2.88,5.42-5.14,7.98-6.64,5.11-3.09,9.16-3.67,10.64-1.8,1.52,1.92.32,5.84-2.17,10.81-2.51,4.98-6.25,11.05-10.17,17.9Z"/>
      <path class="cls-13" d="m1035.55,881.92c-.72,4.73-1.99,8.96-3.41,12.73-1.49,3.71-3.2,6.8-4.98,9.09-3.56,4.6-7.03,6.18-8.88,4.85-1.94-1.4-2.11-5.45-1.56-10.81.3-2.67.7-5.74,1.22-9.08.48-3.35,1.01-7,1.56-10.84.49-3.89.96-7.6,1.38-11,.4-3.42.88-6.52,1.32-9.23.94-5.39,2.17-9.22,4.48-9.65,2.21-.43,5.14,2.87,7.22,9.13,1.05,3.11,1.8,6.93,2.15,11.17.3,4.24.19,8.91-.51,13.63Z"/>
      <path class="cls-13" d="m1013.82,927.49c6.62,1.47,12.54,2.91,17.05,4.48,4.47,1.55,7.65,3.51,8.13,5.86.46,2.28-1.89,4.72-6.5,6.23-4.58,1.52-11.57,1.73-19.32.17-7.78-1.65-14.85-5.08-19.48-8.56-4.64-3.46-6.91-6.91-6.2-9,.71-2.17,4.19-2.54,8.91-2.16,4.77.45,10.77,1.47,17.4,2.98Z"/>
      <path class="cls-13" d="m941.56,965.32c7.9.58,15.12,3.45,19.83,6.55,4.76,3.13,7.16,6.41,6.67,8.47-.49,2.14-3.68,2.71-8.18,2.72-4.49.03-10.39-.47-16.98-1.04-6.63-.6-12.55-.89-17.32-1.66-4.72-.74-8.21-1.92-9.12-4.18-.89-2.19,1.14-5.14,5.63-7.55,4.4-2.48,11.56-3.9,19.47-3.31Z"/>
      <path class="cls-13" d="m921.78,988.9c8.8,1.38,16.52,4.6,21.71,7.99,5.21,3.4,7.94,6.81,7.47,8.84-.48,2.09-3.96,2.5-9.11,2.12-5.2-.44-11.96-1.4-19.54-2.5-7.58-1.08-14.63-2.12-19.94-3.2-5.33-1.14-9.1-2.61-9.78-4.91-.65-2.22,1.98-4.98,7.3-6.85,5.32-1.83,13.17-2.77,21.89-1.48Z"/>
      <path class="cls-13" d="m871.05,992.46c-.36,3.88-.7,7.58-1.02,10.96-.24,3.39-.5,6.47-.77,9.12-.56,5.29-1.3,9.04-3.54,9.43-2.12.39-5.36-2.77-8.02-8.8-1.34-3-2.43-6.71-3.11-10.89-.64-4.18-.74-8.74-.21-13.49.57-4.74,1.76-9.14,3.26-12.96,1.62-3.73,3.53-6.88,5.51-9.26,3.96-4.78,7.76-6.56,9.73-5.15,2.02,1.41,1.93,5.47,1.2,10.95-.39,2.73-.88,5.86-1.45,9.22-.5,3.38-1.1,6.98-1.58,10.87Z"/>
      <path class="cls-13" d="m826.68,1101.77c3.79-.74,7.49-1.43,10.79-2.13,3.32-.73,6.33-1.39,8.9-1.95,5.17-1.09,9.09-1.42,10.77.42,1.56,1.71.56,5.5-3.54,9.51-2.03,2.01-4.92,3.94-8.48,5.64-3.51,1.71-7.74,3.14-12.52,4.01-4.77.84-9.69.97-14.05.77-4.42-.29-8.47-1.01-11.81-2.07-6.73-2.08-10.46-5.05-10.2-7.15.27-2.2,4.07-3.28,9.64-4.09,2.74-.36,5.94-.78,9.48-1.25,3.46-.5,7.18-1.03,11.02-1.71Z"/>
      <path class="cls-13" d="m787.07,1091.1c.75,7.59,1.94,14.51,2.48,19.73.53,5.22.41,8.91-1.63,9.78-1.98.82-5.76-1.55-9.6-6.8-1.93-2.62-3.75-5.95-5.23-9.78-1.44-3.85-2.56-8.24-3.08-12.92-.47-4.67-.35-9.2.38-13.12.74-3.94,1.86-7.39,3.23-10.11,2.68-5.51,6.09-7.95,8.29-7.05,2.32.94,3.11,4.82,3.63,10.24.53,5.46.83,12.46,1.53,20.03Z"/>
      <path class="cls-13" d="m787.54,1160.6c7.04-.96,13.42-1.8,18.41-2.11,4.99-.28,8.73.09,10.19,2,1.4,1.84.12,4.96-3.96,8.04-2.03,1.54-4.77,3.01-7.99,4.34-3.26,1.28-7.12,2.33-11.39,2.97-4.28.6-8.57.71-12.48.48-3.89-.26-7.43-.86-10.37-1.74-5.92-1.73-9.29-4.29-9.19-6.42.06-2.22,3.53-3.56,8.42-4.64,4.94-1.06,11.39-1.94,18.36-2.92Z"/>
      <path class="cls-13" d="m745.12,1157.95c2.59,6.69,5.15,12.62,6.85,17.29,1.69,4.65,2.33,8.08.65,9.47-1.65,1.31-5.69.13-10.5-3.7-2.39-1.9-4.93-4.51-7.25-7.65-2.28-3.15-4.39-6.88-6-11.02-1.58-4.15-2.5-8.29-2.89-12.09-.36-3.81-.06-7.18.56-9.99,1.26-5.63,3.77-8.69,6.11-8.37,2.43.31,4.31,3.71,6.18,8.47,1.86,4.79,3.85,10.97,6.28,17.6Z"/>
      <path class="cls-13" d="m728.3,1193.81c1.46,3.38,2.85,6.59,4.12,9.54,1.32,2.91,2.53,5.6,3.58,7.92,1.96,4.65,3.07,8.15,1.45,9.64-1.55,1.41-5.8.42-10.99-3.35-2.59-1.87-5.3-4.47-7.89-7.69-2.51-3.23-4.78-7.06-6.54-11.36-1.71-4.31-2.7-8.63-3.12-12.6-.36-3.97-.02-7.5.66-10.42,1.38-5.86,4.06-8.97,6.38-8.58,2.44.39,4.18,3.93,5.96,8.84.87,2.47,1.84,5.29,2.85,8.35,1.08,3.03,2.2,6.28,3.52,9.72Z"/>
      <path class="cls-13" d="m732.18,1234.74c-1.61-.58-2.49-2.17-1.96-3.56,15.31-42.19,35.93-82.37,60.56-119.85,12.34-18.73,25.69-36.8,40.04-54.04,14.37-17.22,29.67-33.67,45.8-49.25,64.43-62.41,142.63-110.71,227.66-139.43,1.4-.5,2.99.49,3.52,2.1.54,1.63-.17,3.27-1.55,3.76-84.12,28.42-161.54,76.23-225.33,138.02-15.97,15.43-31.12,31.71-45.34,48.76-14.21,17.06-27.42,34.95-39.63,53.49-24.37,37.09-44.78,76.85-59.91,118.57-.52,1.37-2.24,2.01-3.85,1.44Z"/>
    </g>
  </g>
  <g>
    <g>
      <g>
        <g>
          <path class="cls-12" d="m110.6,1292.13c-.54.68-36.54,43.35-36.54,43.35l-19.07-15.25,32.91-46.26,22.7,18.15Z"/>
          <path class="cls-15" d="m83.81,1323.93s-1.49,4.02,5.41,15.87c6.9,11.85,9.53,15.07,8.08,22.47l-51.07-40.85s3.91-3.22,16.86-12.57l7.79,18.52,12.93-3.43Z"/>
        </g>
        <path class="cls-15" d="m248.1,957.75s-6.39,93.01-24.41,156.95c-18.02,63.94-74.41,169.16-122.07,198.22l-32.55-20.93s60.46-100.57,70.34-151.72c9.88-51.15,2.33-118.59,27.9-188.34l80.8,5.81Z"/>
      </g>
      <g>
        <g>
          <path class="cls-12" d="m282.4,1300.11c0,.87-1.45,56.68-1.45,56.68h-24.41l-3.2-56.68h29.06Z"/>
          <path class="cls-15" d="m281.34,1341.67s1.35,4.07,14.14,9.01,16.86,5.81,20.35,12.5h-65.4s1.04-4.95,5.32-20.35l17.65,9.6,7.95-10.75Z"/>
        </g>
        <path class="cls-19" d="m248.1,972.25s31.39,116.26,36.62,171.48c5.23,55.22,5.81,156.37,5.23,183.69h-45.34s-3.54-96.95-16.86-133.7c-13.32-36.75-10.24-25-30.7-70.34-20.46-45.34-13.48-123.24-9.41-156.95l60.46,5.81Z"/>
      </g>
    </g>
    <g>
      <g>
        <path class="cls-10" d="m253.07,845.38s-35.95-48.56-53.74-61.12c-7.38-5.21-32.18-10.47-36.1,13.02-3.93,23.57,33.64,58.73,74.79,77.89,40.59,18.9,120.05-16.63,137.27-34.89s-22.02,1.73-22.02,1.73l4.61-10.66s7.58-15.42-21.99,12.03c0,0-9.16,9.44-82.82,2Z"/>
        <path class="cls-6" d="m163.23,797.28c3.91-23.5,28.72-18.23,36.1-13.02,10.39,7.34,26.97,26.94,38.97,41.99l-28.12,33.16c-28.63-19.25-49.95-44.09-46.95-62.13Z"/>
      </g>
      <polygon class="cls-10" points="212.64 715.66 216.71 780.04 185.32 749.81 189.97 712.03 212.64 715.66"/>
      <path class="cls-7" d="m178.93,755.43s-35.46,9.3-40.11,50.77c-4.65,41.47.39,71.31,9.3,107.35,8.91,36.04-.77,65.49-.77,65.49l109.67,6.2s1.94-58.91-17.44-101.92c-19.38-43.02-22.86-103.28-22.86-103.28l-37.78-24.61Z"/>
      <path class="cls-6" d="m219.33,768.22c.58.87,6.68,29.07,6.68,29.07l-47.09-41.85,4.42-13.5,35.98,26.29Z"/>
      <g>
        <circle class="cls-18" cx="391.71" cy="737.05" r="133.29" transform="translate(-406.44 492.85) rotate(-45)"/>
        <path class="cls-3" d="m391.71,603.76c16.61,0,32.49,3.06,47.16,8.61l-47.16,129.56v-138.17Z"/>
        <path class="cls-5" d="m438.86,612.37c50.33,19.05,86.13,67.67,86.13,124.68,0,1.64-.06,3.26-.12,4.88h-133.16l47.16-129.56Z"/>
      </g>
      <g>
        <path class="cls-12" d="m253.53,863.94s-41.08-46.89-54.25-57.36c-13.18-10.46-37.59-27.9-41.08-4.26s32.99,79.06,75.4,93.4c42.41,14.34,134.65-8.53,153.25-25.38,18.6-16.86-22.09,0-22.09,0l5.43-10.27s8.76-14.78-22.86,10.27c0,0-20.93,6.78-93.78-6.39Z"/>
        <path class="cls-6" d="m158.19,802.32c3.49-23.64,27.9-6.2,41.08,4.26,8.42,6.69,28.22,28.23,41.43,42.93l-32.76,32.36c-30.33-22.42-52.5-60.89-49.74-79.55Z"/>
      </g>
    </g>
    <g>
      <path class="cls-12" d="m220.78,671.43s10.75,46.21,9.01,58.13-4.36,22.09-17.73,15.7c-13.37-6.39-25.58-35.93-25.58-35.93,0,0-2.62-21.33,0-33.54,2.62-12.21,34.3-4.36,34.3-4.36Z"/>
      <path class="cls-15" d="m227.56,680.05c10.08-13.37,9.3-28.1,3.68-30.03-4.93-1.7-7.84,3.76-11.47,5.92-5.87,3.49-12.44-2.11-17.81-4.16-15.07-5.73-47.96-6.31-45.51,17.17,1.74,16.72,8.33,21.57,8.33,21.57,0,0-13.37-1.36-11.82,8.72s14.53,18.21,28.87,16.08c0,0-8.61-20.25.49-13.97,11.15,7.69,13.47,15.13,13.07,9.71-1.31-18.02-10.33-22.51-2.08-27.91,0,0,25.51,8.5,34.25-3.09Z"/>
      <path class="cls-12" d="m188.01,703.71c-2.35-3.8-6.63-9.44-10.64-5.44-4.65,4.65-3.29,15.7,5.33,22.48,2.42,1.9,5.19,2.52,7.26-.12,3.67-4.7,1.64-10.77-1.04-15.4-.26-.44-.56-.96-.91-1.52Z"/>
      <path class="cls-15" d="m194.36,707.19c1.29,1.84,2.42,3.58,3.03,4.28,4.57,5.2,10.74,11.2,17.96,11.99,10.65,1.16,13.99-6.07,14-6.07-.14.76,13.8,28.73.09,41.48-4.93,4.58-15.85-5.35-20.58-9.89-8.31-7.97-15.25-17.92-18.75-28.96-1.61-5.09-2.68-10.35-3.75-15.58-.35-1.71-2.49-8.99-.34-10.2,1.37-.78,6.17,9.84,8.34,12.94Z"/>
    </g>
  </g>
  <g>
    <g>
      <rect class="cls-17" x="1558.24" y="923.18" width="192.5" height="687.5" rx="27.5" ry="27.5" transform="translate(2921.42 -387.56) rotate(90)"/>
      <rect class="cls-18" x="1324.49" y="1184.43" width="660" height="165" rx="13.75" ry="13.75"/>
      <circle class="cls-4" cx="1895.11" cy="1266.93" r="41.25"/>
      <circle class="cls-3" cx="1815.36" cy="1266.93" r="16.5"/>
      <circle class="cls-5" cx="1765.86" cy="1266.93" r="16.5"/>
      <g>
        <g>
          <rect class="cls-4" x="1363.67" y="1211.93" width="27.5" height="27.5"/>
          <rect class="cls-4" x="1404.92" y="1211.93" width="27.5" height="27.5"/>
          <rect class="cls-4" x="1446.17" y="1211.93" width="27.5" height="27.5"/>
          <rect class="cls-4" x="1487.42" y="1211.93" width="27.5" height="27.5"/>
          <rect class="cls-4" x="1528.67" y="1211.93" width="27.5" height="27.5"/>
          <rect class="cls-4" x="1569.92" y="1211.93" width="27.5" height="27.5"/>
          <rect class="cls-4" x="1611.17" y="1211.93" width="27.5" height="27.5"/>
          <rect class="cls-4" x="1652.42" y="1211.93" width="27.5" height="27.5"/>
          <rect class="cls-4" x="1693.67" y="1211.93" width="27.5" height="27.5"/>
        </g>
        <g>
          <rect class="cls-4" x="1363.67" y="1253.18" width="27.5" height="27.5"/>
          <rect class="cls-4" x="1404.92" y="1253.18" width="27.5" height="27.5"/>
          <rect class="cls-4" x="1446.17" y="1253.18" width="27.5" height="27.5"/>
          <rect class="cls-4" x="1487.42" y="1253.18" width="27.5" height="27.5"/>
          <rect class="cls-4" x="1528.67" y="1253.18" width="27.5" height="27.5"/>
          <rect class="cls-4" x="1569.92" y="1253.18" width="27.5" height="27.5"/>
          <rect class="cls-4" x="1611.17" y="1253.18" width="27.5" height="27.5"/>
          <rect class="cls-4" x="1652.42" y="1253.18" width="27.5" height="27.5"/>
          <rect class="cls-4" x="1693.67" y="1253.18" width="27.5" height="27.5"/>
        </g>
        <g>
          <rect class="cls-4" x="1363.67" y="1294.43" width="27.5" height="27.5"/>
          <rect class="cls-4" x="1404.92" y="1294.43" width="27.5" height="27.5"/>
          <rect class="cls-4" x="1446.17" y="1294.43" width="27.5" height="27.5"/>
          <rect class="cls-4" x="1487.42" y="1294.43" width="27.5" height="27.5"/>
          <rect class="cls-4" x="1528.67" y="1294.43" width="27.5" height="27.5"/>
          <rect class="cls-4" x="1569.92" y="1294.43" width="27.5" height="27.5"/>
          <rect class="cls-4" x="1611.17" y="1294.43" width="27.5" height="27.5"/>
          <rect class="cls-4" x="1652.42" y="1294.43" width="27.5" height="27.5"/>
          <rect class="cls-4" x="1693.67" y="1294.43" width="27.5" height="27.5"/>
        </g>
      </g>
    </g>
    <g>
      <rect class="cls-17" x="1558.24" y="718.26" width="192.5" height="687.5" rx="27.5" ry="27.5" transform="translate(2716.5 -592.47) rotate(90)"/>
      <rect class="cls-18" x="1324.49" y="979.51" width="660" height="165" rx="13.75" ry="13.75"/>
      <circle class="cls-4" cx="1895.11" cy="1062.01" r="41.25"/>
      <circle class="cls-3" cx="1815.36" cy="1062.01" r="16.5"/>
      <circle class="cls-5" cx="1765.86" cy="1062.01" r="16.5"/>
      <g>
        <g>
          <rect class="cls-4" x="1363.67" y="1007.01" width="27.5" height="27.5"/>
          <rect class="cls-4" x="1404.92" y="1007.01" width="27.5" height="27.5"/>
          <rect class="cls-4" x="1446.17" y="1007.01" width="27.5" height="27.5"/>
          <rect class="cls-4" x="1487.42" y="1007.01" width="27.5" height="27.5"/>
          <rect class="cls-4" x="1528.67" y="1007.01" width="27.5" height="27.5"/>
          <rect class="cls-4" x="1569.92" y="1007.01" width="27.5" height="27.5"/>
          <rect class="cls-4" x="1611.17" y="1007.01" width="27.5" height="27.5"/>
          <rect class="cls-4" x="1652.42" y="1007.01" width="27.5" height="27.5"/>
          <rect class="cls-4" x="1693.67" y="1007.01" width="27.5" height="27.5"/>
        </g>
        <g>
          <rect class="cls-4" x="1363.67" y="1048.26" width="27.5" height="27.5"/>
          <rect class="cls-4" x="1404.92" y="1048.26" width="27.5" height="27.5"/>
          <rect class="cls-4" x="1446.17" y="1048.26" width="27.5" height="27.5"/>
          <rect class="cls-4" x="1487.42" y="1048.26" width="27.5" height="27.5"/>
          <rect class="cls-4" x="1528.67" y="1048.26" width="27.5" height="27.5"/>
          <rect class="cls-4" x="1569.92" y="1048.26" width="27.5" height="27.5"/>
          <rect class="cls-4" x="1611.17" y="1048.26" width="27.5" height="27.5"/>
          <rect class="cls-4" x="1652.42" y="1048.26" width="27.5" height="27.5"/>
          <rect class="cls-4" x="1693.67" y="1048.26" width="27.5" height="27.5"/>
        </g>
        <g>
          <rect class="cls-4" x="1363.67" y="1089.51" width="27.5" height="27.5"/>
          <rect class="cls-4" x="1404.92" y="1089.51" width="27.5" height="27.5"/>
          <rect class="cls-4" x="1446.17" y="1089.51" width="27.5" height="27.5"/>
          <rect class="cls-4" x="1487.42" y="1089.51" width="27.5" height="27.5"/>
          <rect class="cls-4" x="1528.67" y="1089.51" width="27.5" height="27.5"/>
          <rect class="cls-4" x="1569.92" y="1089.51" width="27.5" height="27.5"/>
          <rect class="cls-4" x="1611.17" y="1089.51" width="27.5" height="27.5"/>
          <rect class="cls-4" x="1652.42" y="1089.51" width="27.5" height="27.5"/>
          <rect class="cls-4" x="1693.67" y="1089.51" width="27.5" height="27.5"/>
        </g>
      </g>
    </g>
    <g>
      <rect class="cls-17" x="1558.24" y="513.35" width="192.5" height="687.5" rx="27.5" ry="27.5" transform="translate(2511.59 -797.39) rotate(90)"/>
      <rect class="cls-18" x="1324.49" y="774.6" width="660" height="165" rx="13.75" ry="13.75"/>
      <circle class="cls-4" cx="1895.11" cy="857.1" r="41.25"/>
      <circle class="cls-3" cx="1815.36" cy="857.1" r="16.5"/>
      <circle class="cls-5" cx="1765.86" cy="857.1" r="16.5"/>
      <g>
        <g>
          <rect class="cls-4" x="1363.67" y="802.1" width="27.5" height="27.5"/>
          <rect class="cls-4" x="1404.92" y="802.1" width="27.5" height="27.5"/>
          <rect class="cls-4" x="1446.17" y="802.1" width="27.5" height="27.5"/>
          <rect class="cls-4" x="1487.42" y="802.1" width="27.5" height="27.5"/>
          <rect class="cls-4" x="1528.67" y="802.1" width="27.5" height="27.5"/>
          <rect class="cls-4" x="1569.92" y="802.1" width="27.5" height="27.5"/>
          <rect class="cls-4" x="1611.17" y="802.1" width="27.5" height="27.5"/>
          <rect class="cls-4" x="1652.42" y="802.1" width="27.5" height="27.5"/>
          <rect class="cls-4" x="1693.67" y="802.1" width="27.5" height="27.5"/>
        </g>
        <g>
          <rect class="cls-4" x="1363.67" y="843.35" width="27.5" height="27.5"/>
          <rect class="cls-4" x="1404.92" y="843.35" width="27.5" height="27.5"/>
          <rect class="cls-4" x="1446.17" y="843.35" width="27.5" height="27.5"/>
          <rect class="cls-4" x="1487.42" y="843.35" width="27.5" height="27.5"/>
          <rect class="cls-4" x="1528.67" y="843.35" width="27.5" height="27.5"/>
          <rect class="cls-4" x="1569.92" y="843.35" width="27.5" height="27.5"/>
          <rect class="cls-4" x="1611.17" y="843.35" width="27.5" height="27.5"/>
          <rect class="cls-4" x="1652.42" y="843.35" width="27.5" height="27.5"/>
          <rect class="cls-4" x="1693.67" y="843.35" width="27.5" height="27.5"/>
        </g>
        <g>
          <rect class="cls-4" x="1363.67" y="884.6" width="27.5" height="27.5"/>
          <rect class="cls-4" x="1404.92" y="884.6" width="27.5" height="27.5"/>
          <rect class="cls-4" x="1446.17" y="884.6" width="27.5" height="27.5"/>
          <rect class="cls-4" x="1487.42" y="884.6" width="27.5" height="27.5"/>
          <rect class="cls-4" x="1528.67" y="884.6" width="27.5" height="27.5"/>
          <rect class="cls-4" x="1569.92" y="884.6" width="27.5" height="27.5"/>
          <rect class="cls-4" x="1611.17" y="884.6" width="27.5" height="27.5"/>
          <rect class="cls-4" x="1652.42" y="884.6" width="27.5" height="27.5"/>
          <rect class="cls-4" x="1693.67" y="884.6" width="27.5" height="27.5"/>
        </g>
      </g>
    </g>
  </g>
  <g>
    <rect class="cls-18" x="698.86" y="167.72" width="825" height="550" rx="13.75" ry="13.75"/>
    <rect class="cls-4" x="863.86" y="57.72" width="495" height="770" transform="translate(1554.08 -668.64) rotate(90)"/>
    <path class="cls-18" d="m996.46,311.71h-12.54c-1.39-5.02-3.38-9.79-5.9-14.23l8.87-8.86c2.4-2.4,2.39-6.29,0-8.69l-15.2-15.19c-2.4-2.4-6.28-2.4-8.68,0l-8.86,8.87c-4.44-2.52-9.21-4.51-14.23-5.9v-12.53c0-3.39-2.75-6.14-6.14-6.14h-21.49c-3.39,0-6.14,2.75-6.14,6.14v12.53c-5.02,1.39-9.79,3.38-14.23,5.9l-8.87-8.87c-2.4-2.4-6.28-2.4-8.68,0l-15.2,15.19c-2.4,2.4-2.4,6.29,0,8.69l8.86,8.86c-2.51,4.44-4.51,9.21-5.9,14.23h-12.53c-3.39,0-6.14,2.75-6.14,6.14v21.49c0,3.39,2.75,6.14,6.14,6.14h12.53c1.39,5.02,3.38,9.79,5.9,14.23l-8.87,8.86c-2.4,2.4-2.4,6.29,0,8.69l15.2,15.19c2.4,2.4,6.29,2.4,8.69,0l8.86-8.87c4.44,2.51,9.21,4.51,14.23,5.9v12.54c0,3.39,2.75,6.14,6.14,6.14h21.49c3.39,0,6.14-2.75,6.14-6.14v-12.54c5.02-1.39,9.79-3.38,14.23-5.9l8.87,8.87c2.4,2.4,6.29,2.4,8.69,0l15.19-15.19c2.4-2.4,2.4-6.28,0-8.69l-8.87-8.87c2.51-4.44,4.51-9.21,5.9-14.23h12.54c3.39,0,6.14-2.75,6.14-6.14v-21.49c0-3.39-2.75-6.14-6.14-6.14Zm-73.43,44.66c-15.31,0-27.78-12.46-27.78-27.78s12.46-27.78,27.78-27.78,27.78,12.46,27.78,27.78-12.46,27.78-27.78,27.78Z"/>
    <path class="cls-5" d="m1356.25,446.96c-8.65-50.37-52.5-88.7-105.33-88.7-13.24,0-25.91,2.42-37.62,6.83-13.68-43.28-54.14-74.66-101.95-74.66s-88.27,31.38-101.95,74.66c-11.7-4.4-24.37-6.83-37.62-6.83-52.83,0-96.68,38.34-105.33,88.7-39.17,1.95-70.33,34.33-70.33,73.98s33.17,74.08,74.08,74.08h482.28c40.91,0,74.08-33.17,74.08-74.08s-31.16-72.03-70.33-73.98Z"/>
    <g>
      <path class="cls-18" d="m1101.74,421.13v-55.54c-30.22,2.84-56.57,18.89-73.27,42.31l48.15,27.8c6.52-7.25,15.23-12.49,25.12-14.57Z"/>
      <path class="cls-3" d="m1158.11,466.87c0,5.07-.84,9.95-2.34,14.53l48.12,27.78c5.9-12.89,9.22-27.21,9.22-42.31,0-52.95-40.45-96.43-92.12-101.28v55.54c21.17,4.45,37.12,23.26,37.12,45.74Z"/>
      <path class="cls-3" d="m1064.61,466.87c0-5.07.84-9.95,2.34-14.53l-48.12-27.78c-5.9,12.89-9.22,27.21-9.22,42.31,0,52.95,40.45,96.43,92.12,101.28v-55.54c-21.17-4.45-37.12-23.26-37.12-45.74Z"/>
      <path class="cls-3" d="m1120.99,512.62v55.54c30.22-2.84,56.57-18.89,73.27-42.31l-48.15-27.8c-6.52,7.25-15.23,12.49-25.12,14.57Z"/>
    </g>
  </g>
  <g>
    <g>
      <g>
        <g>
          <polygon class="cls-12" points="1578.74 707.18 1580.25 748.99 1615.17 748.99 1608.48 707.18 1578.74 707.18"/>
          <path class="cls-15" d="m1612.65,733.25l7.27,24.06c.53,1.77-.79,3.55-2.63,3.55h-79.61c-2.23,0-3.54-2.5-2.26-4.32,1.91-2.72,5.4-6.12,11.65-8.39,11.86-4.31,22.75-6.05,32.71-12.51l11.04,7.98,21.84-10.36Z"/>
        </g>
        <polygon class="cls-15" points="1592.53 408.43 1563.22 560.24 1576.15 718.82 1615.81 718.82 1642.97 556.29 1672.72 410.58 1592.53 408.43"/>
      </g>
      <g>
        <g>
          <polygon class="cls-12" points="1713.03 707.18 1719.71 748.99 1754.63 748.99 1742.77 707.18 1713.03 707.18"/>
          <path class="cls-15" d="m1750.16,733.25l8.9,23.89c.67,1.8-.66,3.71-2.58,3.71h-79.36c-2.23,0-3.54-2.5-2.26-4.32,1.91-2.72,5.4-6.12,11.65-8.39,11.86-4.31,21.06-6.05,31.02-12.51l12.73,7.98,19.89-10.36Z"/>
        </g>
        <path class="cls-19" d="m1599,404.55l32.33,161.23,75.01,153.04h50.01l-52.16-148.3s3.23-92.47,2.26-145.39l-107.45-20.58Z"/>
      </g>
    </g>
    <g>
      <g>
        <path class="cls-12" d="m1659.52,266.66c12.63-9.26,27.99-16.3,39.12-1.79,14.68,19.14,9.89,50.53-117.11,112.93,0,0-111.73-12.02-131.58-17.43-19.85-5.41-43.14-10.2-43.39-14.53-.24-4.33,21.41-3.07,24.85-3.7,3.44-.63-3.08-5.91-6.22-7.62-3.14-1.71-4.23-5.7,27.41,5.86l121.52-1.36c16.36-13.95,32.72-27.91,49.08-41.86,7.66-6.53,15.32-13.07,22.98-19.6,3.72-3.17,8.31-7.21,13.33-10.89Z"/>
        <path class="cls-9" d="m1659.52,266.66c-5.02,3.68-9.61,7.72-13.33,10.89-7.66,6.53-15.32,13.07-22.98,19.6-7.69,6.56-15.37,13.11-23.06,19.67l29.68,35.45c79.62-45.81,81.34-71.07,68.81-87.4-11.13-14.51-26.49-7.47-39.12,1.79Z"/>
      </g>
      <g>
        <polygon class="cls-10" points="1645.56 151.49 1634.78 226.29 1674.66 210.98 1673.8 142.44 1645.56 151.49"/>
        <path class="cls-6" d="m1628.91,231.14s-39.5,114.46-45.32,191.73l122.86,2.26s56.04-186.13-31.79-214.15l-45.74,20.15Z"/>
        <polygon class="cls-7" points="1632.19 214.86 1622.93 242.02 1680.52 214.22 1678.32 199.13 1632.19 214.86"/>
      </g>
      <g>
        <path class="cls-17" d="m1472.06,144.06c-45.12-11.91-36.82-15.18-80.94-40.14-2.27-1.28-5.22-1.93-8.16-1.93-2.94,0-5.88.65-8.16,1.93-44.12,24.96-35.82,28.23-80.94,40.14-18.29,4.83-24.65,2.43-23.74,16.96,8.45,135.39,80.72,199.98,104.95,217.97,2.13,1.58,5.01,2.37,7.89,2.37s5.76-.79,7.89-2.37c24.23-18,96.49-82.58,104.95-217.97.91-14.53-5.45-12.13-23.74-16.96Z"/>
        <path class="cls-4" d="m1382.97,370.37c-.78,0-1.29-.19-1.4-.25-21.43-15.92-92.25-78.26-100.46-209.78-.05-.85-.07-1.51-.06-2.03,1.45-.4,3.57-.85,5.4-1.24,2.79-.59,6.26-1.33,10.24-2.38,30.86-8.15,38.41-12.66,54-22.99,6.87-4.55,15.43-10.22,29.55-18.21.24-.14,1.22-.5,2.76-.5,1.33,0,2.37.31,2.73.51,14.11,7.98,22.66,13.65,29.54,18.21,15.58,10.33,23.14,14.84,54,22.99,3.98,1.05,7.45,1.79,10.24,2.38,1.82.39,3.95.84,5.4,1.24,0,.51,0,1.18-.06,2.02-8.21,131.52-79.02,193.86-100.53,209.83-.04.01-.55.2-1.33.2Z"/>
        <path class="cls-17" d="m1382.97,360.13c-23.89-19.01-83.73-77.88-92.73-194.9,2.49-.53,5.4-1.18,8.68-2.05,32.14-8.48,40.58-13.53,56.6-24.16,6.5-4.31,14.53-9.63,27.45-17,12.92,7.37,20.95,12.69,27.45,17,16.02,10.63,24.46,15.68,56.6,24.16,3.28.87,6.18,1.52,8.68,2.05-9.01,116.98-68.82,175.86-92.73,194.9Z"/>
        <path class="cls-18" d="m1366.44,155.5c-15.72,10.42-25.82,16.56-54.83,24.71,10.26,81.9,46.87,129.95,71.36,153.61v-188.87c-7.04,4.26-12.23,7.7-16.53,10.55Z"/>
        <path class="cls-17" d="m1399.47,155.48c-4.31-2.86-9.51-6.31-16.5-10.54h0v188.87h0c24.48-23.66,61.1-71.71,71.36-153.61-29.01-8.15-39.11-14.29-54.86-24.73Z"/>
        <g>
          <path class="cls-15" d="m1406.5,242.65h-8.55v-26.3c0-8.26-6.72-14.98-14.98-14.98s-14.98,6.72-14.98,14.98v26.3h-8.55v-26.3c0-12.97,10.56-23.53,23.53-23.53s23.53,10.56,23.53,23.53v26.3Z"/>
          <path class="cls-5" d="m1351.18,243.62v13.93c0,17.56,14.23,31.79,31.79,31.79s31.79-14.23,31.79-31.79v-13.93c0-4.72-3.83-8.55-8.55-8.55h-46.48c-4.72,0-8.55,3.83-8.55,8.55Z"/>
          <g>
            <path class="cls-15" d="m1382.97,278.35c-2.36,0-4.28-1.91-4.28-4.28v-21.35c0-2.36,1.91-4.28,4.28-4.28s4.28,1.91,4.28,4.28v21.35c0,2.36-1.91,4.28-4.28,4.28Z"/>
            <path class="cls-15" d="m1392.7,252.72c0,5.38-4.36,9.74-9.74,9.74s-9.74-4.36-9.74-9.74,4.36-9.74,9.74-9.74,9.74,4.36,9.74,9.74Z"/>
            <path class="cls-16" d="m1387.65,252.72c0,2.59-2.1,4.69-4.68,4.69s-4.69-2.1-4.69-4.69,2.1-4.69,4.69-4.69,4.68,2.1,4.68,4.69Z"/>
          </g>
          <path class="cls-4" d="m1361.15,263.31c-1.42,0-2.57-1.15-2.57-2.57v-14.01c0-1.42,1.15-2.57,2.57-2.57s2.57,1.15,2.57,2.57v14.01c0,1.42-1.15,2.57-2.57,2.57Z"/>
        </g>
      </g>
      <g>
        <path class="cls-12" d="m1647.02,238.42c14.12-6.78,30.51-10.87,38.78,5.43,10.91,21.51.42,51.49-135.88,89.46,0,0-107.61-32.37-126.13-41.34-18.52-8.97-40.53-17.96-39.97-22.26.56-4.3,21.61.92,25.1.93,3.5.02-1.94-6.38-4.71-8.63-2.77-2.26-3.11-6.38,25.86,10.8l119.7,21.02c18.65-10.71,37.3-21.41,55.95-32.12l26.19-15.04c4.24-2.44,9.5-5.56,15.11-8.25Z"/>
        <path class="cls-7" d="m1647.02,238.42c-5.61,2.7-10.87,5.82-15.11,8.25-8.73,5.01-17.46,10.03-26.19,15.04-8.76,5.03-17.52,10.06-26.29,15.09l22.65,40.3c86.69-30.39,93.02-54.9,83.71-73.26-8.27-16.31-24.66-12.22-38.78-5.43Z"/>
      </g>
    </g>
    <g>
      <path class="cls-12" d="m1647.5,98.9s-6.9,16.6-12.5,33.41c-5.6,16.81-9.48,36.21-1.72,40.09,7.76,3.88,35.35-10.56,51.3-24.79,9.05-8.07,7.85-24.34,3.23-33.63-4.26-8.56-12.85-16.54-23.25-17.68-2.6-.29-5.25-.09-7.83.32-1.38.22-8.73,1.06-9.24,2.28Z"/>
      <path class="cls-15" d="m1681.99,142.66s-10.1,8.19-9.79,0c.31-8.19,10.44-19.61,1.82-29.75-8.62-10.13-26.3,0-30.18-8.84-3.88-8.84,10.78-41.82,38.15-23.28,27.37,18.54,5.17,18.32,28.45,36.43,20.89,16.25-7.5,42.58-23.92,47.91-3.1,1.01-6.66,1.85-9.94,1.35-3.71-.56-2.75-3.43-1.93-6.4.65-2.37,1.56-4.68,2.5-6.95,1.1-2.67,2.64-8.7,4.84-10.48Z"/>
      <path class="cls-12" d="m1678.11,140.5s13.15-10.35,17.89-4.53c4.74,5.82-2.16,19.18-14.66,22.63-12.5,3.45-9.05-3.45-7.54-7.54,1.51-4.1,4.31-10.56,4.31-10.56Z"/>
    </g>
  </g>
  <path class="cls-4" d="m2228.26,413.13l-4.93-2.43c2.76-5.58,5.17-11.45,7.17-17.44l5.22,1.74c-2.08,6.23-4.59,12.33-7.45,18.13Zm10.61-28.89l-5.33-1.35c1.53-6.05,2.68-12.3,3.43-18.57l5.46.65c-.77,6.5-1.97,12.98-3.56,19.27Zm4.47-30.43l-5.49-.25c.1-2.23.15-4.46.15-6.7,0-4.06-.17-8.16-.5-12.19l5.48-.45c.34,4.17.52,8.43.52,12.64,0,2.32-.05,4.63-.16,6.94Zm-7.13-29.85c-.99-6.24-2.38-12.44-4.16-18.41l5.27-1.56c1.84,6.2,3.29,12.64,4.31,19.12l-5.43.86Zm-7.62-28.63c-.51-1.34-1.04-2.66-1.6-3.98-1.87-4.45-4-8.86-6.34-13.12l4.82-2.65c2.44,4.43,4.65,9.01,6.6,13.64.58,1.38,1.14,2.76,1.67,4.15l-5.14,1.96Zm-13.5-26.35c-3.42-5.23-7.23-10.31-11.34-15.1l4.17-3.58c4.26,4.97,8.22,10.24,11.77,15.66l-4.6,3.01Zm-18.66-23.03c-4.43-4.46-9.19-8.67-14.14-12.52l3.38-4.34c5.13,3.99,10.07,8.36,14.66,12.99l-3.9,3.88Zm-22.9-18.84c-5.25-3.5-10.75-6.67-16.36-9.42l2.43-4.94c5.82,2.86,11.53,6.15,16.98,9.78l-3.05,4.58Zm-269.38-.98c-5.42,0-10.97-.21-16.51-.64l.42-5.48c6.39.49,12.75.69,18.98.6l.08,5.5c-.99.01-1.98.02-2.97.02Zm14.12-.49l-.38-5.49c2.26-.16,4.52-.36,6.77-.6,4.01-.42,8.06-1,12.03-1.7l.96,5.41c-4.1.73-8.27,1.32-12.42,1.76-2.32.25-4.64.45-6.97.61Zm-41.7-1.26c-6.3-.78-12.76-1.85-19.2-3.16l1.1-5.39c6.31,1.28,12.62,2.32,18.78,3.09l-.68,5.46Zm72.02-3.41l-1.31-5.34c6.15-1.5,12.25-3.35,18.12-5.51l1.9,5.16c-6.06,2.22-12.36,4.14-18.71,5.69Zm-102.06-2.18c-6.16-1.51-12.45-3.28-18.7-5.26l1.65-5.24c6.14,1.94,12.32,3.67,18.36,5.16l-1.32,5.34Zm300.79-5.48c-2.78-1.11-5.63-2.14-8.46-3.06-3.03-.98-6.23-1.91-9.5-2.75l1.37-5.33c3.39.87,6.69,1.83,9.83,2.85,2.95.96,5.91,2.03,8.81,3.19l-2.04,5.11Zm-169.66-2.22l-2.23-5.02c5.81-2.58,11.46-5.52,16.77-8.71l2.84,4.71c-5.51,3.31-11.35,6.35-17.37,9.02Zm-160.35-1.07c-5.96-2.11-12.06-4.45-18.1-6.96l2.11-5.08c5.96,2.48,11.95,4.78,17.82,6.86l-1.83,5.19Zm301.46-4.92c-5.53-1.11-11.52-2.1-18.83-3.13l.76-5.45c7.42,1.04,13.51,2.05,19.15,3.18l-1.08,5.39Zm-29.7-4.57l-3.92-.5c-5.07-.64-10.15-1.28-15.2-2l.77-5.45c5.03.71,10.07,1.35,15.12,1.99l3.93.5-.7,5.46Zm-30.07-4.2c-7-1.2-13.24-2.52-19.06-4.03l1.39-5.32c5.67,1.47,11.75,2.76,18.6,3.94l-.93,5.42Zm-54.58-.39l-3.17-4.49c4.02-2.84,7.87-5.89,11.5-9.09-.56-.28-1.11-.56-1.66-.85l2.54-4.88c5.26,2.74,11.09,5.18,17.33,7.27l-1.74,5.22c-3.84-1.28-7.54-2.7-11.05-4.23-4.29,3.91-8.91,7.63-13.75,11.05Zm-3.04-20.17l-1.1-.75c-5.09-3.52-9.79-7.64-13.97-12.24l4.07-3.7c3.9,4.29,8.28,8.13,13.03,11.41l1.01.68-3.04,4.58Zm26.09-.24l-4.09-3.68c3-3.34,5.83-6.85,8.41-10.45,1.04-1.45,2.06-2.94,3.03-4.45l4.62,2.98c-1.03,1.59-2.09,3.15-3.19,4.68-2.7,3.76-5.66,7.44-8.79,10.92Zm-48.19-21.69c-3.87-5.73-6.82-11.77-8.77-17.94l5.25-1.65c1.79,5.67,4.51,11.22,8.08,16.52l-4.56,3.08Zm65.78-3.73l-4.93-2.45c2.91-5.85,5.02-11.72,6.26-17.43l5.38,1.17c-1.34,6.16-3.6,12.45-6.71,18.71Zm-76.95-25.48c-.22-2-.33-4.01-.33-6,0-2.32.16-4.65.46-6.93.32-2.41.86-4.85,1.61-7.23l5.25,1.64c-.65,2.09-1.13,4.21-1.41,6.31-.27,2.05-.41,4.13-.41,6.21,0,1.79.1,3.6.3,5.4l-5.47.61Zm85.11-4.61l-5.49-.2c.02-.62.03-1.25.03-1.88,0-1.03-.03-2.05-.09-3.08-.26-4.36-1.17-8.7-2.7-12.9l5.17-1.88c1.71,4.7,2.73,9.57,3.02,14.46.06,1.14.1,2.27.1,3.4,0,.69-.01,1.39-.04,2.08Zm-73.83-23.28l-4.69-2.87c3.54-5.77,8.3-10.89,13.78-14.8l3.19,4.48c-4.88,3.48-9.13,8.04-12.29,13.19Zm60.97-4.05c-3.43-5.25-7.86-9.51-12.81-12.31l2.71-4.79c5.71,3.23,10.8,8.1,14.71,14.09l-4.6,3.01Zm-39.64-14.02l-1.97-5.14c6.77-2.59,13.77-3.29,20.4-2.04l-1.02,5.4c-5.62-1.06-11.6-.45-17.41,1.77Z"/>
  <g>
    <polygon class="cls-4" points="1536.4 132.68 1560.98 90.1 1511.82 90.1 1536.4 132.68"/>
    <path class="cls-4" d="m1570.33,59.66h-67.87c-13.99,0-25.34,11.34-25.34,25.34s11.34,25.34,25.34,25.34h67.87c13.99,0,25.34-11.34,25.34-25.34s-11.34-25.34-25.34-25.34Z"/>
    <path class="cls-11" d="m1542.35,85c0,3.39-2.75,6.13-6.13,6.13s-6.13-2.75-6.13-6.13,2.75-6.13,6.13-6.13,6.13,2.75,6.13,6.13Z"/>
    <circle class="cls-11" cx="1513.1" cy="85" r="6.13" transform="translate(-2.34 96.13) rotate(-3.64)"/>
    <path class="cls-11" d="m1553.2,85c0,3.39,2.75,6.13,6.13,6.13s6.13-2.75,6.13-6.13-2.75-6.13-6.13-6.13-6.13,2.75-6.13,6.13Z"/>
  </g>
  <path class="cls-4" d="m242.51,310.45h15.47v86.1c0,3.79,3.07,6.86,6.86,6.86h36.56c3.79,0,6.86-3.07,6.86-6.86v-86.1h15.47c3.79,0,5.34-2.67,3.46-5.96l-40.67-71.2c-1.88-3.29-4.92-3.29-6.8,0l-40.67,71.2c-1.88,3.29-.33,5.96,3.46,5.96Z"/>
  <g>
    <rect class="cls-4" x="438.86" y="467" width="21.54" height="92.62"/>
    <rect class="cls-4" x="474.9" y="429.39" width="21.54" height="130.23"/>
    <rect class="cls-4" x="510.93" y="453.07" width="21.54" height="106.55"/>
    <rect class="cls-4" x="546.96" y="488.59" width="21.53" height="71.03"/>
  </g>
  <g>
    <rect class="cls-15" x="553.2" y="591.77" width="438.93" height="771.41" rx="41.87" ry="41.87"/>
    <path class="cls-19" d="m428.83,770.85h687.68c16.02,0,29.03,13.01,29.03,29.03v355.19c0,16.02-13.01,29.03-29.03,29.03H428.83c-16.02,0-29.02-13.01-29.02-29.02v-355.19c0-16.02,13.01-29.03,29.03-29.03Z" transform="translate(1750.14 204.81) rotate(90)"/>
    <path class="cls-7" d="m428.83,784.6h687.67c8.43,0,15.28,6.85,15.28,15.28v355.19c0,8.43-6.84,15.28-15.28,15.28H428.83c-8.43,0-15.28-6.84-15.28-15.28v-355.19c0-8.43,6.85-15.28,15.28-15.28Z" transform="translate(1750.14 204.81) rotate(90)"/>
    <path class="cls-19" d="m677.1,614.14h191.14v21c0,7.59-6.16,13.75-13.75,13.75h-163.64c-7.59,0-13.75-6.16-13.75-13.75v-21h0Z"/>
    <path class="cls-5" d="m448.86,953.44c29.63,0,29.63-123.28,59.26-123.28s29.63,108.4,59.26,108.4,29.64-178.54,59.27-178.54,29.64,178.54,59.27,178.54,29.64-76.52,59.27-76.52,29.64,76.52,59.27,76.52,29.64-142.41,59.28-142.41,29.64,157.29,59.28,157.29h-474.18Z"/>
    <rect class="cls-18" x="448.86" y="973.73" width="474.18" height="17.84"/>
    <g>
      <path class="cls-15" d="m722.54,375.62s-8.95-25.62-26.54-16.67-44.14,75.93-44.14,75.93c0,0,4.32,16.67,44.14,41.36,0,0,16.98-10.49,26.54-100.63Z"/>
      <g>
        <g>
          <g>
            <polygon class="cls-12" points="757.42 925.37 762.98 967.97 780.88 967.97 776.97 915.9 757.42 925.37"/>
            <path class="cls-4" d="m760.93,952.3s-4.04,3.14-4.67,18.54c-.06,1.56,1.19,2.89,2.75,2.89h40.06c2.61,0,3.75-3.28,1.71-4.91-4.57-3.63-11.69-8.88-20.92-14.41l-5.98,8.6-12.95-10.72Z"/>
          </g>
          <path class="cls-1" d="m741.99,609.9s44.76,74.08,44.76,323.9h-36.94s-41.57-212.78-43.63-245.71c-2.06-32.93-6.17-78.2-6.17-78.2h41.98Z"/>
        </g>
        <g>
          <g>
            <path class="cls-12" d="m610.7,926.19l-22.44,42.65c-.28.53-.38,1.12-.28,1.72.4,2.45,2.06,9.35,8.59,16.72.71.81,1.84,1.1,2.87.77,3.85-1.22,13.68-4.84,23.56-12.59.57-.44.94-1.08,1.03-1.8.67-4.92,3.27-25.73,2.73-47.47h-16.05Z"/>
            <path class="cls-4" d="m600.91,944.81l-12.64,24.04c-.28.53-.38,1.12-.28,1.72.4,2.45,2.06,9.35,8.59,16.72.71.81,1.84,1.1,2.87.77,3.85-1.22,13.67-4.84,23.56-12.59.57-.44.94-1.08,1.03-1.8.39-2.91,1.46-11.37,2.16-22.28-9.54,9.4-18.84,13.29-18.84,13.29-3.17-6.63-5.27-14.62-6.43-19.87Z"/>
          </g>
          <path class="cls-4" d="m680.25,609.9s-81.08,116.47-76.96,323.9h34.57s79.43-211.96,93.01-323.9h-50.62Z"/>
        </g>
      </g>
      <g>
        <g>
          <path class="cls-10" d="m727.48,501.56s25.31,30.56,58.04,49.89c5.94,3.51,12.95,4.45,17.6-.66,15.73-17.26,49.72-55.42,62.91-77.06,0,0,23.57-19.07,23.91-28.68.34-9.61-27.01,13.44-27.01,13.44l-.33-10.53s-1.79-14.12-8.58,21.55c0,0-32.38,29.52-57.7,55.5,0,0-28.09-23.15-44.76-35.5l-24.08,12.04Z"/>
          <path class="cls-14" d="m786.75,507.73l-26.62,36.42s-39.44-36.73-39.13-47.54c.31-10.8,4.86-20.68,12.93-20.37,8.06.31,52.82,31.48,52.82,31.48Z"/>
        </g>
        <path class="cls-10" d="m709.4,414.23l-9.39,46.89s12.55,12.04,33.13,23.46l-1.95-60.61-21.78-9.74Z"/>
        <path class="cls-3" d="m700.01,461.12s-25.31,6.79-30.25,42.91c-4.94,36.12,10.49,105.88,10.49,105.88h61.74s23.15-48.46,23.15-69.45-16.79-43.86-32.32-65.76l-32.81-13.57Z"/>
        <polygon class="cls-18" points="838.91 461.12 798.48 578.12 875.03 578.12 916.7 461.12 838.91 461.12"/>
        <g>
          <path class="cls-12" d="m678.71,549.4s17.27,45.36,47.32,77.91c4.68,5.07,12.65,5.23,17.61.42,16.76-16.27,53-52.28,67.49-73.08,0,0,24.69-17.59,25.62-27.16s-27.78,11.76-27.78,11.76l.31-10.53s-.93-14.2-9.88,20.99c0,0-33.65,25.31-60.5,49.7,0,0-28.4-40.13-38.89-56.49l-21.3,6.48Z"/>
          <path class="cls-14" d="m719.45,567.31s-32.26,28.71-32.26,28.71c0,0-29.17-54.02-29.48-84.89-.09-9.08,1.06-22.39,10.22-27.29,8.95-4.78,14.02,4.11,17.28,11.05,3.23,6.87,6.67,13.65,9.95,20.5,6.79,14.18,13.44,28.42,20.03,42.69.27.59,4.62,8.91,4.25,9.23Z"/>
        </g>
      </g>
      <g>
        <path class="cls-12" d="m706.18,408.65s14.2,27.78,33.95,35.19c19.76,7.41,23.15-32.72,17.59-59.27-5.56-26.55-36.91-19.76-44.69-10.5-7.78,9.26-6.85,34.57-6.85,34.57Z"/>
        <path class="cls-15" d="m704.52,411.73s12.29-6.87,17.41-25.93c0,0,18.83,16.05,43.21,0,0,0-12.04-66.37-50.01-21.3,0,0-19.69,11.11-10.62,47.23Z"/>
        <path class="cls-12" d="m709.89,405.25c-1.04-2.71-4.65-6.37-7.09-7.78-6.38-3.69-7.04,5.78-6.74,9.86.54,7.55,4.62,14.46,12.29,16.44,9.55,2.46,1.57-18.45,1.54-18.52Z"/>
      </g>
    </g>
    <g>
      <g>
        <path class="cls-2" d="m613.37,1150.58c0,7.29-2.7,11.31-7.45,11.31-4.19,0-7.03-3.92-7.09-11.02,0-7.19,3.1-11.15,7.45-11.15s7.09,4.02,7.09,10.85Zm-11.64.33c0,5.58,1.71,8.74,4.35,8.74,2.97,0,4.39-3.46,4.39-8.94s-1.35-8.74-4.35-8.74c-2.54,0-4.39,3.1-4.39,8.94Z"/>
        <path class="cls-2" d="m622.35,1142.79h-.07l-3.73,2.01-.56-2.21,4.68-2.51h2.47v21.44h-2.8v-18.73Z"/>
        <path class="cls-2" d="m654.22,1150.58c0,7.29-2.7,11.31-7.45,11.31-4.19,0-7.03-3.92-7.09-11.02,0-7.19,3.1-11.15,7.45-11.15s7.09,4.02,7.09,10.85Zm-11.64.33c0,5.58,1.71,8.74,4.35,8.74,2.97,0,4.39-3.46,4.39-8.94s-1.35-8.74-4.35-8.74c-2.54,0-4.39,3.1-4.39,8.94Z"/>
        <path class="cls-2" d="m671.15,1150.58c0,7.29-2.7,11.31-7.45,11.31-4.19,0-7.03-3.92-7.09-11.02,0-7.19,3.1-11.15,7.45-11.15s7.09,4.02,7.09,10.85Zm-11.64.33c0,5.58,1.71,8.74,4.35,8.74,2.97,0,4.39-3.46,4.39-8.94s-1.35-8.74-4.35-8.74c-2.54,0-4.39,3.1-4.39,8.94Z"/>
        <path class="cls-2" d="m680.13,1142.79h-.07l-3.73,2.01-.56-2.21,4.68-2.51h2.47v21.44h-2.8v-18.73Z"/>
        <path class="cls-2" d="m712,1150.58c0,7.29-2.7,11.31-7.45,11.31-4.19,0-7.03-3.92-7.09-11.02,0-7.19,3.1-11.15,7.45-11.15s7.09,4.02,7.09,10.85Zm-11.64.33c0,5.58,1.71,8.74,4.35,8.74,2.97,0,4.39-3.46,4.39-8.94s-1.35-8.74-4.35-8.74c-2.54,0-4.39,3.1-4.39,8.94Z"/>
        <path class="cls-2" d="m720.98,1142.79h-.07l-3.73,2.01-.56-2.21,4.68-2.51h2.47v21.44h-2.8v-18.73Z"/>
        <path class="cls-2" d="m737.91,1142.79h-.07l-3.73,2.01-.56-2.21,4.68-2.51h2.47v21.44h-2.8v-18.73Z"/>
        <path class="cls-2" d="m762.79,1150.58c0,7.29-2.7,11.31-7.45,11.31-4.19,0-7.03-3.92-7.09-11.02,0-7.19,3.1-11.15,7.45-11.15s7.09,4.02,7.09,10.85Zm-11.64.33c0,5.58,1.71,8.74,4.35,8.74,2.97,0,4.39-3.46,4.39-8.94s-1.35-8.74-4.35-8.74c-2.54,0-4.39,3.1-4.39,8.94Z"/>
        <path class="cls-2" d="m786.71,1150.58c0,7.29-2.7,11.31-7.45,11.31-4.19,0-7.03-3.92-7.09-11.02,0-7.19,3.1-11.15,7.45-11.15s7.09,4.02,7.09,10.85Zm-11.64.33c0,5.58,1.71,8.74,4.35,8.74,2.97,0,4.39-3.46,4.39-8.94s-1.35-8.74-4.35-8.74c-2.54,0-4.39,3.1-4.39,8.94Z"/>
        <path class="cls-2" d="m795.69,1142.79h-.07l-3.73,2.01-.56-2.21,4.68-2.51h2.47v21.44h-2.8v-18.73Z"/>
        <path class="cls-2" d="m820.57,1150.58c0,7.29-2.7,11.31-7.45,11.31-4.19,0-7.03-3.92-7.09-11.02,0-7.19,3.1-11.15,7.45-11.15s7.09,4.02,7.09,10.85Zm-11.64.33c0,5.58,1.71,8.74,4.35,8.74,2.97,0,4.39-3.46,4.39-8.94s-1.35-8.74-4.35-8.74c-2.54,0-4.39,3.1-4.39,8.94Z"/>
      </g>
      <g>
        <path class="cls-2" d="m613.37,1183.58c0,7.29-2.7,11.31-7.45,11.31-4.19,0-7.03-3.92-7.09-11.02,0-7.19,3.1-11.15,7.45-11.15s7.09,4.02,7.09,10.85Zm-11.64.33c0,5.58,1.71,8.74,4.35,8.74,2.97,0,4.39-3.46,4.39-8.94s-1.35-8.74-4.35-8.74c-2.54,0-4.39,3.1-4.39,8.94Z"/>
        <path class="cls-2" d="m630.3,1183.58c0,7.29-2.7,11.31-7.45,11.31-4.19,0-7.03-3.92-7.09-11.02,0-7.19,3.1-11.15,7.45-11.15s7.09,4.02,7.09,10.85Zm-11.64.33c0,5.58,1.71,8.74,4.35,8.74,2.97,0,4.39-3.46,4.39-8.94s-1.35-8.74-4.35-8.74c-2.54,0-4.39,3.1-4.39,8.94Z"/>
        <path class="cls-2" d="m639.28,1175.79h-.07l-3.73,2.01-.56-2.21,4.68-2.51h2.47v21.44h-2.8v-18.73Z"/>
        <path class="cls-2" d="m663.2,1175.79h-.07l-3.73,2.01-.56-2.21,4.68-2.51h2.47v21.44h-2.8v-18.73Z"/>
        <path class="cls-2" d="m688.08,1183.58c0,7.29-2.7,11.31-7.45,11.31-4.19,0-7.03-3.92-7.09-11.02,0-7.19,3.1-11.15,7.45-11.15s7.09,4.02,7.09,10.85Zm-11.64.33c0,5.58,1.71,8.74,4.35,8.74,2.97,0,4.39-3.46,4.39-8.94s-1.35-8.74-4.35-8.74c-2.54,0-4.39,3.1-4.39,8.94Z"/>
        <path class="cls-2" d="m697.06,1175.79h-.07l-3.73,2.01-.56-2.21,4.68-2.51h2.47v21.44h-2.8v-18.73Z"/>
        <path class="cls-2" d="m721.94,1183.58c0,7.29-2.7,11.31-7.45,11.31-4.19,0-7.03-3.92-7.09-11.02,0-7.19,3.1-11.15,7.45-11.15s7.09,4.02,7.09,10.85Zm-11.64.33c0,5.58,1.71,8.74,4.35,8.74,2.97,0,4.39-3.46,4.39-8.94s-1.35-8.74-4.35-8.74c-2.54,0-4.39,3.1-4.39,8.94Z"/>
        <path class="cls-2" d="m737.91,1175.79h-.07l-3.73,2.01-.56-2.21,4.68-2.51h2.47v21.44h-2.8v-18.73Z"/>
        <path class="cls-2" d="m762.79,1183.58c0,7.29-2.7,11.31-7.45,11.31-4.19,0-7.03-3.92-7.09-11.02,0-7.19,3.1-11.15,7.45-11.15s7.09,4.02,7.09,10.85Zm-11.64.33c0,5.58,1.71,8.74,4.35,8.74,2.97,0,4.39-3.46,4.39-8.94s-1.35-8.74-4.35-8.74c-2.54,0-4.39,3.1-4.39,8.94Z"/>
        <path class="cls-2" d="m778.77,1175.79h-.07l-3.73,2.01-.56-2.21,4.68-2.51h2.47v21.44h-2.8v-18.73Z"/>
        <path class="cls-2" d="m795.69,1175.79h-.07l-3.73,2.01-.56-2.21,4.68-2.51h2.47v21.44h-2.8v-18.73Z"/>
        <path class="cls-2" d="m812.62,1175.79h-.07l-3.73,2.01-.56-2.21,4.68-2.51h2.47v21.44h-2.8v-18.73Z"/>
      </g>
      <g>
        <path class="cls-2" d="m605.42,1208.79h-.07l-3.73,2.01-.56-2.21,4.68-2.51h2.47v21.44h-2.8v-18.73Z"/>
        <path class="cls-2" d="m629.35,1208.79h-.07l-3.73,2.01-.56-2.21,4.68-2.51h2.47v21.44h-2.8v-18.73Z"/>
        <path class="cls-2" d="m646.27,1208.79h-.07l-3.73,2.01-.56-2.21,4.68-2.51h2.47v21.44h-2.8v-18.73Z"/>
        <path class="cls-2" d="m671.15,1216.58c0,7.29-2.7,11.31-7.45,11.31-4.19,0-7.03-3.92-7.09-11.02,0-7.19,3.1-11.15,7.45-11.15s7.09,4.02,7.09,10.85Zm-11.64.33c0,5.58,1.71,8.74,4.35,8.74,2.97,0,4.39-3.46,4.39-8.94s-1.35-8.74-4.35-8.74c-2.54,0-4.39,3.1-4.39,8.94Z"/>
        <path class="cls-2" d="m688.08,1216.58c0,7.29-2.7,11.31-7.45,11.31-4.19,0-7.03-3.92-7.09-11.02,0-7.19,3.1-11.15,7.45-11.15s7.09,4.02,7.09,10.85Zm-11.64.33c0,5.58,1.71,8.74,4.35,8.74,2.97,0,4.39-3.46,4.39-8.94s-1.35-8.74-4.35-8.74c-2.54,0-4.39,3.1-4.39,8.94Z"/>
        <path class="cls-2" d="m704.06,1208.79h-.07l-3.73,2.01-.56-2.21,4.68-2.51h2.47v21.44h-2.8v-18.73Z"/>
        <path class="cls-2" d="m728.93,1216.58c0,7.29-2.7,11.31-7.45,11.31-4.19,0-7.03-3.92-7.09-11.02,0-7.19,3.1-11.15,7.45-11.15s7.09,4.02,7.09,10.85Zm-11.64.33c0,5.58,1.71,8.74,4.35,8.74,2.97,0,4.39-3.46,4.39-8.94s-1.35-8.74-4.35-8.74c-2.54,0-4.39,3.1-4.39,8.94Z"/>
        <path class="cls-2" d="m737.91,1208.79h-.07l-3.73,2.01-.56-2.21,4.68-2.51h2.47v21.44h-2.8v-18.73Z"/>
        <path class="cls-2" d="m754.84,1208.79h-.07l-3.73,2.01-.56-2.21,4.68-2.51h2.47v21.44h-2.8v-18.73Z"/>
        <path class="cls-2" d="m786.71,1216.58c0,7.29-2.7,11.31-7.45,11.31-4.19,0-7.03-3.92-7.09-11.02,0-7.19,3.1-11.15,7.45-11.15s7.09,4.02,7.09,10.85Zm-11.64.33c0,5.58,1.71,8.74,4.35,8.74,2.97,0,4.39-3.46,4.39-8.94s-1.35-8.74-4.35-8.74c-2.54,0-4.39,3.1-4.39,8.94Z"/>
        <path class="cls-2" d="m795.69,1208.79h-.07l-3.73,2.01-.56-2.21,4.68-2.51h2.47v21.44h-2.8v-18.73Z"/>
        <path class="cls-2" d="m812.62,1208.79h-.07l-3.73,2.01-.56-2.21,4.68-2.51h2.47v21.44h-2.8v-18.73Z"/>
      </g>
      <g>
        <path class="cls-2" d="m605.42,1241.79h-.07l-3.73,2.01-.56-2.21,4.68-2.51h2.47v21.44h-2.8v-18.73Z"/>
        <path class="cls-2" d="m630.3,1249.58c0,7.29-2.7,11.31-7.45,11.31-4.19,0-7.03-3.92-7.09-11.02,0-7.19,3.1-11.15,7.45-11.15s7.09,4.02,7.09,10.85Zm-11.64.33c0,5.58,1.71,8.74,4.35,8.74,2.97,0,4.39-3.46,4.39-8.94s-1.35-8.74-4.35-8.74c-2.54,0-4.39,3.1-4.39,8.94Z"/>
        <path class="cls-2" d="m647.23,1249.58c0,7.29-2.7,11.31-7.45,11.31-4.19,0-7.03-3.92-7.09-11.02,0-7.19,3.1-11.15,7.45-11.15s7.09,4.02,7.09,10.85Zm-11.64.33c0,5.58,1.71,8.74,4.35,8.74,2.97,0,4.39-3.46,4.39-8.94s-1.35-8.74-4.35-8.74c-2.54,0-4.39,3.1-4.39,8.94Z"/>
        <path class="cls-2" d="m664.15,1249.58c0,7.29-2.7,11.31-7.45,11.31-4.19,0-7.03-3.92-7.09-11.02,0-7.19,3.1-11.15,7.45-11.15s7.09,4.02,7.09,10.85Zm-11.64.33c0,5.58,1.71,8.74,4.35,8.74,2.97,0,4.39-3.46,4.39-8.94s-1.35-8.74-4.35-8.74c-2.54,0-4.39,3.1-4.39,8.94Z"/>
        <path class="cls-2" d="m680.13,1241.79h-.07l-3.73,2.01-.56-2.21,4.68-2.51h2.47v21.44h-2.8v-18.73Z"/>
        <path class="cls-2" d="m697.06,1241.79h-.07l-3.73,2.01-.56-2.21,4.68-2.51h2.47v21.44h-2.8v-18.73Z"/>
        <path class="cls-2" d="m713.99,1241.79h-.07l-3.73,2.01-.56-2.21,4.68-2.51h2.47v21.44h-2.8v-18.73Z"/>
        <path class="cls-2" d="m738.87,1249.58c0,7.29-2.7,11.31-7.45,11.31-4.19,0-7.03-3.92-7.09-11.02,0-7.19,3.1-11.15,7.45-11.15s7.09,4.02,7.09,10.85Zm-11.64.33c0,5.58,1.71,8.74,4.35,8.74,2.97,0,4.39-3.46,4.39-8.94s-1.35-8.74-4.35-8.74c-2.54,0-4.39,3.1-4.39,8.94Z"/>
        <path class="cls-2" d="m762.79,1249.58c0,7.29-2.7,11.31-7.45,11.31-4.19,0-7.03-3.92-7.09-11.02,0-7.19,3.1-11.15,7.45-11.15s7.09,4.02,7.09,10.85Zm-11.64.33c0,5.58,1.71,8.74,4.35,8.74,2.97,0,4.39-3.46,4.39-8.94s-1.35-8.74-4.35-8.74c-2.54,0-4.39,3.1-4.39,8.94Z"/>
        <path class="cls-2" d="m771.77,1241.79h-.07l-3.73,2.01-.56-2.21,4.68-2.51h2.47v21.44h-2.8v-18.73Z"/>
        <path class="cls-2" d="m796.65,1249.58c0,7.29-2.7,11.31-7.45,11.31-4.19,0-7.03-3.92-7.09-11.02,0-7.19,3.1-11.15,7.45-11.15s7.09,4.02,7.09,10.85Zm-11.64.33c0,5.58,1.71,8.74,4.35,8.74,2.97,0,4.39-3.46,4.39-8.94s-1.35-8.74-4.35-8.74c-2.54,0-4.39,3.1-4.39,8.94Z"/>
        <path class="cls-2" d="m812.62,1241.79h-.07l-3.73,2.01-.56-2.21,4.68-2.51h2.47v21.44h-2.8v-18.73Z"/>
      </g>
    </g>
    <g>
      <g>
        <path class="cls-2" d="m605.42,1045.57h-.07l-3.73,2.01-.56-2.21,4.68-2.51h2.47v21.44h-2.8v-18.73Z"/>
        <path class="cls-2" d="m629.35,1045.57h-.07l-3.73,2.01-.56-2.21,4.68-2.51h2.47v21.44h-2.8v-18.73Z"/>
        <path class="cls-2" d="m646.27,1045.57h-.07l-3.73,2.01-.56-2.21,4.68-2.51h2.47v21.44h-2.8v-18.73Z"/>
        <path class="cls-2" d="m671.15,1053.35c0,7.29-2.7,11.31-7.45,11.31-4.19,0-7.03-3.92-7.09-11.02,0-7.19,3.1-11.15,7.45-11.15s7.09,4.02,7.09,10.85Zm-11.64.33c0,5.58,1.71,8.74,4.35,8.74,2.97,0,4.39-3.46,4.39-8.94s-1.35-8.74-4.35-8.74c-2.54,0-4.39,3.1-4.39,8.94Z"/>
        <path class="cls-2" d="m688.08,1053.35c0,7.29-2.7,11.31-7.45,11.31-4.19,0-7.03-3.92-7.09-11.02,0-7.19,3.1-11.15,7.45-11.15s7.09,4.02,7.09,10.85Zm-11.64.33c0,5.58,1.71,8.74,4.35,8.74,2.97,0,4.39-3.46,4.39-8.94s-1.35-8.74-4.35-8.74c-2.54,0-4.39,3.1-4.39,8.94Z"/>
        <path class="cls-2" d="m704.06,1045.57h-.07l-3.73,2.01-.56-2.21,4.68-2.51h2.47v21.44h-2.8v-18.73Z"/>
        <path class="cls-2" d="m728.93,1053.35c0,7.29-2.7,11.31-7.45,11.31-4.19,0-7.03-3.92-7.09-11.02,0-7.19,3.1-11.15,7.45-11.15s7.09,4.02,7.09,10.85Zm-11.64.33c0,5.58,1.71,8.74,4.35,8.74,2.97,0,4.39-3.46,4.39-8.94s-1.35-8.74-4.35-8.74c-2.54,0-4.39,3.1-4.39,8.94Z"/>
        <path class="cls-2" d="m737.91,1045.57h-.07l-3.73,2.01-.56-2.21,4.68-2.51h2.47v21.44h-2.8v-18.73Z"/>
        <path class="cls-2" d="m754.84,1045.57h-.07l-3.73,2.01-.56-2.21,4.68-2.51h2.47v21.44h-2.8v-18.73Z"/>
        <path class="cls-2" d="m786.71,1053.35c0,7.29-2.7,11.31-7.45,11.31-4.19,0-7.03-3.92-7.09-11.02,0-7.19,3.1-11.15,7.45-11.15s7.09,4.02,7.09,10.85Zm-11.64.33c0,5.58,1.71,8.74,4.35,8.74,2.97,0,4.39-3.46,4.39-8.94s-1.35-8.74-4.35-8.74c-2.54,0-4.39,3.1-4.39,8.94Z"/>
        <path class="cls-2" d="m795.69,1045.57h-.07l-3.73,2.01-.56-2.21,4.68-2.51h2.47v21.44h-2.8v-18.73Z"/>
        <path class="cls-2" d="m812.62,1045.57h-.07l-3.73,2.01-.56-2.21,4.68-2.51h2.47v21.44h-2.8v-18.73Z"/>
      </g>
      <g>
        <path class="cls-2" d="m605.42,1078.57h-.07l-3.73,2.01-.56-2.21,4.68-2.51h2.47v21.44h-2.8v-18.73Z"/>
        <path class="cls-2" d="m630.3,1086.35c0,7.29-2.7,11.31-7.45,11.31-4.19,0-7.03-3.92-7.09-11.02,0-7.19,3.1-11.15,7.45-11.15s7.09,4.02,7.09,10.85Zm-11.64.33c0,5.58,1.71,8.74,4.35,8.74,2.97,0,4.39-3.46,4.39-8.94s-1.35-8.74-4.35-8.74c-2.54,0-4.39,3.1-4.39,8.94Z"/>
        <path class="cls-2" d="m647.23,1086.35c0,7.29-2.7,11.31-7.45,11.31-4.19,0-7.03-3.92-7.09-11.02,0-7.19,3.1-11.15,7.45-11.15s7.09,4.02,7.09,10.85Zm-11.64.33c0,5.58,1.71,8.74,4.35,8.74,2.97,0,4.39-3.46,4.39-8.94s-1.35-8.74-4.35-8.74c-2.54,0-4.39,3.1-4.39,8.94Z"/>
        <path class="cls-2" d="m664.15,1086.35c0,7.29-2.7,11.31-7.45,11.31-4.19,0-7.03-3.92-7.09-11.02,0-7.19,3.1-11.15,7.45-11.15s7.09,4.02,7.09,10.85Zm-11.64.33c0,5.58,1.71,8.74,4.35,8.74,2.97,0,4.39-3.46,4.39-8.94s-1.35-8.74-4.35-8.74c-2.54,0-4.39,3.1-4.39,8.94Z"/>
        <path class="cls-2" d="m680.13,1078.57h-.07l-3.73,2.01-.56-2.21,4.68-2.51h2.47v21.44h-2.8v-18.73Z"/>
        <path class="cls-2" d="m697.06,1078.57h-.07l-3.73,2.01-.56-2.21,4.68-2.51h2.47v21.44h-2.8v-18.73Z"/>
        <path class="cls-2" d="m713.99,1078.57h-.07l-3.73,2.01-.56-2.21,4.68-2.51h2.47v21.44h-2.8v-18.73Z"/>
        <path class="cls-2" d="m738.87,1086.35c0,7.29-2.7,11.31-7.45,11.31-4.19,0-7.03-3.92-7.09-11.02,0-7.19,3.1-11.15,7.45-11.15s7.09,4.02,7.09,10.85Zm-11.64.33c0,5.58,1.71,8.74,4.35,8.74,2.97,0,4.39-3.46,4.39-8.94s-1.35-8.74-4.35-8.74c-2.54,0-4.39,3.1-4.39,8.94Z"/>
        <path class="cls-2" d="m762.79,1086.35c0,7.29-2.7,11.31-7.45,11.31-4.19,0-7.03-3.92-7.09-11.02,0-7.19,3.1-11.15,7.45-11.15s7.09,4.02,7.09,10.85Zm-11.64.33c0,5.58,1.71,8.74,4.35,8.74,2.97,0,4.39-3.46,4.39-8.94s-1.35-8.74-4.35-8.74c-2.54,0-4.39,3.1-4.39,8.94Z"/>
        <path class="cls-2" d="m771.77,1078.57h-.07l-3.73,2.01-.56-2.21,4.68-2.51h2.47v21.44h-2.8v-18.73Z"/>
        <path class="cls-2" d="m796.65,1086.35c0,7.29-2.7,11.31-7.45,11.31-4.19,0-7.03-3.92-7.09-11.02,0-7.19,3.1-11.15,7.45-11.15s7.09,4.02,7.09,10.85Zm-11.64.33c0,5.58,1.71,8.74,4.35,8.74,2.97,0,4.39-3.46,4.39-8.94s-1.35-8.74-4.35-8.74c-2.54,0-4.39,3.1-4.39,8.94Z"/>
        <path class="cls-2" d="m812.62,1078.57h-.07l-3.73,2.01-.56-2.21,4.68-2.51h2.47v21.44h-2.8v-18.73Z"/>
      </g>
    </g>
    <path class="cls-2" d="m923.16,764.38h-91.36v-91.36h91.36v91.36Zm-83.11-8.25h74.86v-74.86h-74.86v74.86Z"/>
  </g>
  <g>
    <g>
      <polygon class="cls-15" points="1089.09 673.44 1112.91 664.76 1091.72 606.53 1067.9 615.2 1089.09 673.44"/>
      <path class="cls-19" d="m1121.16,767.8l27.86-10.14c2.86-1.04,4.34-4.22,3.3-7.08l-36.2-99.45c-1.04-2.85-4.21-4.34-7.07-3.3l-27.86,10.14c-2.86,1.04-4.33,4.2-3.3,7.07l36.21,99.44c1.05,2.88,4.21,4.35,7.07,3.31Z"/>
      <g>
        <path class="cls-8" d="m1077.37,604.14c33.77-12.29,51.25-49.78,38.97-83.56-12.3-33.79-49.79-51.28-83.57-38.98-33.8,12.3-51.27,49.79-38.97,83.57,12.3,33.79,49.79,51.26,83.58,38.97Z"/>
        <path class="cls-19" d="m977.53,571.08c15.59,42.83,62.93,64.89,105.75,49.3,42.82-15.58,64.9-62.92,49.3-105.74-15.58-42.82-62.92-64.9-105.74-49.31-42.81,15.58-64.9,62.93-49.31,105.75Zm16.26-5.92c-12.31-33.78,5.17-71.27,38.97-83.57,33.78-12.3,71.27,5.19,83.57,38.98,12.29,33.78-5.19,71.26-38.97,83.56-33.78,12.3-71.27-5.18-83.58-38.97Z"/>
        <path class="cls-4" d="m1081.57,510.43c2.57,2.14,5.72,3.01,7.42,1.54,1.64-1.41.79-5.09-2.38-7.72-.81-.59-3.75-2.95-8.27-5.1-4.47-2.22-10.54-4.08-16.59-4.5-6.05-.53-11.95.37-16.04,1.72-4.12,1.36-6.5,2.93-6.32,3.38.21.57,2.91.02,6.93-.34,4.03-.36,9.41-.33,14.65.82,5.26,1.04,10.29,3.18,13.92,5.4,3.69,2.16,6,4.3,6.69,4.79Z"/>
      </g>
    </g>
    <g>
      <g>
        <g>
          <polygon class="cls-12" points="1381.1 1268.3 1406.22 1321.32 1383.65 1332.01 1351.07 1282.53 1381.1 1268.3"/>
          <path class="cls-15" d="m1400.43,1309.1l11.69,13.17c1.07,1.21.88,3.07-.42,4.03l-44.75,33.27c-1.96,1.46-4.71-.16-4.37-2.59,1.04-7.31,4.28-20.37,14.32-35.21l12.42,5.64,11.1-18.32Z"/>
        </g>
        <path class="cls-15" d="m1289.78,948.39s33.37,51.33,36.12,83.42c2.75,32.08-10.08,83.88,16.04,124.67,26.12,40.79,71.5,118.25,71.5,118.25l-84.79,30.25s-63-148.5-72.06-209c-9.06-60.5-10.89-147.58-10.89-147.58h44.09Z"/>
      </g>
      <g>
        <g>
          <polygon class="cls-12" points="1214.98 1294.43 1214.98 1353.1 1190 1353.1 1181.75 1294.43 1214.98 1294.43"/>
          <path class="cls-15" d="m1214.98,1339.58l5.85,20.09c.51,1.76-.81,3.52-2.64,3.52h-53.14c-2.55,0-3.72-3.15-1.8-4.83,4.35-3.8,12.08-9.73,25.05-17.38l8.81,10.41,17.87-11.8Z"/>
        </g>
        <path class="cls-19" d="m1270.44,952.28s16.96,37.12,8.71,84.79c-8.25,47.67-55.46,146.67-39.88,275.46h-86.62s28.42-284.85,73.33-347.07l44.46-13.18Z"/>
      </g>
    </g>
    <g>
      <g>
        <path class="cls-12" d="m1295.57,848.11s-15.57-19.45,4.36-28.57c19.94-9.12,76.47,83.04,80.47,101.8,4,18.76-1.2,94.83-3.87,104.94,0,0,8.17,30.44,2.84,35.58-5.33,5.14-13.78-24.67-13.78-24.67,0,0-5.49,1.3-7.6,6-2.12,4.7-6.44,4.26.86-12.81,0,0-1.11-70.41-3.8-84.54s-51-86-59.48-97.73Z"/>
        <path class="cls-14" d="m1355.05,945.84c-2.69-14.13-50.99-86-59.48-97.73,0,0-15.57-19.45,4.36-28.57,19.94-9.12,76.47,83.04,80.47,101.8,2.56,12,1.35,47.4-.55,74.03l-21.91-2.4c-.61-19.25-1.56-40.12-2.89-47.13Z"/>
      </g>
      <polygon class="cls-10" points="1294.96 754.74 1298.17 818.91 1268.38 815.93 1273.24 765.28 1294.96 754.74"/>
      <path class="cls-3" d="m1252.75,822.51c.12-.12.25-.25.37-.37,11.19-11.11,23.18-18.56,39.54-15.34,11.17,2.2,20.61,9.29,23.45,20.65,3.06,12.26-2.03,24.5-6.08,35.88-5.99,16.85-11.82,34.41-13.59,52.29-2.75,27.84,5.5,49.84,5.5,49.84h-75.97s7.91-37.81,3.09-51.22c-4.81-13.41-17.87-35.41-7.22-52.25,8.94-14.12,19.06-27.65,30.9-39.48Z"/>
      <g>
        <path class="cls-12" d="m1271.73,812.24s24.18,6,13.88,25.35c-10.31,19.35-111.18-19.56-125.74-32.05s-56.61-76.09-60.63-85.74c0,0-24.97-19.23-23.85-26.55,1.11-7.32,25.92,11.24,25.92,11.24,0,0,3.57-4.36,2.4-9.39-1.17-5.02,2.53-7.3,7.09,10.7,0,0,43.63,55.28,54.34,64.87,10.71,9.59,92.73,37.38,106.6,41.56Z"/>
        <path class="cls-14" d="m1165.13,770.68c10.71,9.59,92.73,37.38,106.6,41.56,0,0,24.18,6,13.88,25.35-10.31,19.35-111.18-19.56-125.74-32.05-9.31-7.98-29.85-36.85-44.51-59.17l18.86-11.39c12.17,14.92,25.6,30.94,30.91,35.7Z"/>
      </g>
    </g>
    <g>
      <path class="cls-12" d="m1271.28,705.44s-11.41,17.62-14.57,35.66c-3.16,18.04-2.36,32.95,9.01,36.88,11.37,3.93,42.26-23.79,42.26-23.79,0,0,12.41-41.66-36.71-48.75Z"/>
      <path class="cls-15" d="m1293.36,737.55c-14.51-4.46-27.55-13.55-36.77-25.6,2.8-9,12.47-15.45,21.89-15.81,9.42-.36,18.75,5.72,22.23,14.48,8.14-4.07,19.6,1.2,25.62,8.03,6.03,6.83,8.83,15.82,11.71,24.46,2.88,8.64,6.22,17.56,12.94,23.71,4.92,4.5,11.25,7.12,17.56,9.27,15.79,5.38,32.29,8.39,48.24,13.28,15.95,4.89,31.73,11.95,43.35,23.93,16.45,16.96,22.48,43.29,15.04,65.72-6.67,20.1-24.02,34.94-45.01,37.82-20.99,2.88-42.26-4.08-60.74-14.43-40.12-22.46-70.43-61.79-81.95-106.3-5.02-19.42-6.07-41.73,5.85-57.87l.06-.67Z"/>
      <path class="cls-12" d="m1286.25,738.01s7.56-10.54,11.69-5.27c4.12,5.27-1.6,19.71-11.69,22.69-10.08,2.98-7.1-6.19-7.1-6.19l7.1-11.23Z"/>
    </g>
  </g>
  <g>
    <rect class="cls-17" x="859.05" y="1044.72" width="212.98" height="318.46"/>
    <rect class="cls-18" x="835.92" y="1275.13" width="259.23" height="88.05" rx="15.97" ry="15.97"/>
    <rect class="cls-18" x="835.92" y="1159.92" width="259.23" height="88.05" rx="15.97" ry="15.97"/>
    <path class="cls-18" d="m851.9,1044.72h227.28c8.82,0,15.97,7.16,15.97,15.97v56.1c0,8.82-7.16,15.97-15.97,15.97h-227.28c-8.82,0-15.97-7.16-15.97-15.97v-56.11c0-8.82,7.16-15.97,15.97-15.97Z"/>
    <rect class="cls-4" x="887.4" y="1275.13" width="23.12" height="88.05"/>
    <rect class="cls-4" x="887.4" y="1159.92" width="23.12" height="88.05"/>
    <rect class="cls-4" x="887.4" y="1044.72" width="23.12" height="88.05"/>
  </g>
  <g>
    <g>
      <rect class="cls-15" x="2015.24" y="1081.11" width="113.81" height="8.19"/>
      <polygon class="cls-15" points="2129.05 1089.3 2184.45 984.87 2176.04 984.87 2118.81 1081.11 2129.05 1089.3"/>
    </g>
    <g>
      <g>
        <path class="cls-10" d="m1973.19,919.66c-3.07,4.53-5.56,9.51-7.52,14.21-7.28,17.39-11.8,36.62-10.07,55.55.58,6.39,1.91,12.71,4.07,18.76,15.05,42.09,74.59,62.01,121.54,59.58,4.57-.24,9.4-4.76,21.26,3.58,11.86,8.34,18.92,8.69,18.57,3.79-.41-5.79-3.47-10.74-8.52-13.62-3.89-2.22-8.32-3.11-12.71-3.71-3.81-.52-9.51.65-13-.59,0,0-76.32-27.09-82.01-58.93-2.74-15.33,2.62-29.74,8.68-43.55,4.27-9.74,9.57-20.49,7.32-31.43-1.97-9.58-9.91-18.58-19.97-19.48-12.25-1.1-21.24,6.4-27.65,15.85Z"/>
        <path class="cls-6" d="m2013.48,954.73c4.27-9.74,9.57-20.49,7.32-31.43-1.96-9.58-9.91-18.58-19.97-19.48-12.25-1.1-21.24,6.4-27.65,15.85-3.07,4.53-5.56,9.51-7.52,14.21-7.28,17.39-11.8,36.62-10.07,55.55.1,1.1.25,2.19.4,3.28l48.82-11.65c1.47-9.05,4.93-17.8,8.67-26.32Z"/>
      </g>
      <polygon class="cls-10" points="2034.43 845.95 1997.14 890.13 2021.06 924.41 2048.22 870.11 2034.43 845.95"/>
      <path class="cls-7" d="m1852.72,1084.13c-.1,0,1.91-25.71,2.08-27.15,2.41-20.87,6.41-41.63,12.5-61.75,7.09-23.42,17.11-46.49,32.33-65.83,12.51-15.91,29.26-28.4,48.26-35.45,18.97-7.04,43.25-11.78,61.51-.3,16.11,10.13,21.26,31.71,19.47,49.58-1.65,16.46-9.33,31.57-17.28,45.8-7.66,13.72-15.96,27.12-22.36,41.5-3.29,7.37-6.08,14.98-8.06,22.81-.53,2.09-4.25,25.24-3.33,25.2-.02,0-125.12,5.6-125.13,5.6Z"/>
      <polygon class="cls-6" points="2005.97 872.03 1987.22 886.71 2028.53 926.87 2040.25 911.21 2005.97 872.03"/>
      <g>
        <path class="cls-12" d="m1942.76,937.72c-2.58,5.04-4.49,10.46-5.91,15.52-5.25,18.76-7.41,39.03-3.18,58.21,1.43,6.47,3.61,12.78,6.61,18.69,20.93,41.19,84.78,53.93,132.78,45.41,4.68-.83,9.06-6.09,22.35.94,13.28,7.02,20.59,6.47,19.6,1.49-1.17-5.88-4.96-10.55-10.52-12.85-4.29-1.78-8.96-2.12-13.56-2.17-3.99-.04-9.7,1.88-13.45,1.06,0,0-82.05-17.94-92.01-49.83-4.8-15.35-1.14-30.81,3.3-45.74,3.14-10.53,7.2-22.22,3.48-33.15-3.26-9.57-12.6-17.76-23.06-17.39-12.75.45-21.03,9.29-26.41,19.8Z"/>
        <path class="cls-6" d="m1988.76,968.47c3.14-10.53,7.2-22.22,3.48-33.15-3.26-9.57-12.6-17.76-23.06-17.39-12.75.45-21.03,9.29-26.41,19.8-2.58,5.04-4.49,10.46-5.91,15.52-5.25,18.76-7.41,39.03-3.18,58.21.25,1.11.54,2.21.83,3.31l48.74-18.22c.34-9.46,2.78-18.87,5.52-28.08Z"/>
      </g>
    </g>
    <g>
      <g>
        <g>
          <polygon class="cls-12" points="2000.49 1309.51 1991.22 1351.32 1956.3 1351.32 1970.74 1309.51 2000.49 1309.51"/>
          <path class="cls-15" d="m1961.12,1335.58l-9.27,23.86c-.7,1.8.63,3.75,2.56,3.75h66.47c1.89,0,3.25-1.86,2.61-3.64-1.01-2.81-3.58-6.61-10.04-9.08-11.3-4.31-9.7-6.35-19.2-12.81l-15.1,8.29-18.03-10.36Z"/>
        </g>
        <path class="cls-15" d="m2007.32,1147.07s-32.17,83.2-45.97,175.03h48.72s38.37-82.34,47.42-112.95c9.05-30.61,25.43-61.65,0-71.56-25.43-9.92-50.17,9.48-50.17,9.48Z"/>
      </g>
      <g>
        <g>
          <polygon class="cls-12" points="2069.47 1309.51 2067.96 1351.32 2033.04 1351.32 2039.72 1309.51 2069.47 1309.51"/>
          <path class="cls-15" d="m2035.56,1335.58l-5.06,24.29c-.36,1.71.95,3.31,2.69,3.31h68.13c1.91,0,3.28-1.9,2.59-3.68-1.07-2.8-3.77-6.58-10.52-9.04-11.86-4.31-14.99-6.05-24.95-12.51l-11.04,7.98-21.84-10.36Z"/>
        </g>
        <path class="cls-19" d="m1852.72,1084.13s-2.59,73.72,48.28,84.93c26.44,5.83,54.29,4.58,81.05,1.94,10.64-1.05,21.23-2.47,31.82-3.89,9.02-1.22,19.64-3.07,27.78,2.26,16.31,10.7,3.05,45.08.2,60.07-5.42,28.54-9.48,57.27-10.13,86.36-.01.54-.1,6.3-.09,6.3h40.52c9.04-26.97,17.56-54.13,25.57-81.42,8.79-29.95,20.09-61.21,19.51-92.82-.35-19.27-5.74-39.45-23.29-49.94-20.69-12.37-48.55-8.95-71.58-7.98-8.67.37-17.66.97-26.23-.74-3.49-.7-6.91-1.78-10.02-3.55-1.48-.84-7.38-7.16-8.26-7.12,0,0-125.13,5.6-125.13,5.6Z"/>
      </g>
    </g>
    <g>
      <path class="cls-12" d="m2038.95,855.86s-3.88,35.24,8.08,47.53c11.96,12.29,49.79-40.42,58.52-65.63s-22.31-29.42-39.45-25.22c-17.14,4.2-26.56,30.39-27.16,43.33Z"/>
      <path class="cls-15" d="m2042.4,848.1s-1.08,11.86,5.6,11.86,28.67-24.57,29.96-39.88c0,0,10.56,4.1,11.86,15.73,1.29,11.64,7.98,38.15,34.27,5.82,26.3-32.33-3.66-49.15-22.42-47.42-18.75,1.72-28.96,10.78-28.96,10.78,0,0-38.07-10.38-48.2,6.12-10.13,16.51-5.17,43.67,0,52.5,5.17,8.84,17.89-15.52,17.89-15.52Z"/>
      <path class="cls-12" d="m2046.07,850.69s1.51-14.87-6.47-12.07c-7.98,2.8-13.8,15.52-9.05,27.59s12.29-6.9,15.52-15.52Z"/>
    </g>
  </g>
  <g>
    <g>
      <rect class="cls-13" x="1824.83" y="318.42" width="273.06" height="6.45"/>
      <rect class="cls-13" x="1824.82" y="354.46" width="273.06" height="6.45"/>
      <rect class="cls-13" x="1824.82" y="390.49" width="273.06" height="6.45"/>
      <rect class="cls-13" x="1824.82" y="426.52" width="273.06" height="6.45"/>
      <rect class="cls-13" x="1824.83" y="462.56" width="273.06" height="6.45"/>
      <rect class="cls-13" x="1824.83" y="498.59" width="273.06" height="6.45"/>
    </g>
    <polygon class="cls-3" points="2096.42 335.39 2016.49 368.95 2044.12 376.28 1955.14 465.27 1896.41 406.54 1826.29 476.66 1837.69 488.07 1896.41 429.35 1955.14 488.08 2055.53 387.68 2062.86 415.32 2096.42 335.39"/>
  </g>
  <path class="cls-4" d="m49.42,253.56c-6.53-.03-13.11-.5-19.55-1.39l.75-5.45c6.2.85,12.53,1.3,18.83,1.33l-.03,5.5Zm11.2-.36l-.38-5.49c6.27-.43,12.56-1.28,18.71-2.52l1.09,5.39c-6.38,1.29-12.92,2.17-19.42,2.61Zm-41.78-2.98c-6.42-1.39-12.76-3.23-18.84-5.45l1.89-5.16c5.85,2.14,11.94,3.91,18.11,5.24l-1.16,5.38Zm72.09-2.27l-1.49-5.29c6.07-1.71,12.05-3.84,17.77-6.32l2.19,5.05c-5.95,2.58-12.16,4.79-18.47,6.57Zm28.58-11.44l-2.58-4.86c5.49-2.92,10.87-6.29,15.99-9.99l3.23,4.46c-5.32,3.85-10.91,7.35-16.63,10.39Zm25.45-17.31l-3.56-4.19c4.77-4.05,9.34-8.47,13.56-13.13l4.08,3.69c-4.38,4.84-9.12,9.43-14.08,13.63Zm21.28-22.21l-4.34-3.38c3.87-4.96,7.43-10.22,10.61-15.62l4.74,2.79c-3.3,5.6-7,11.06-11.01,16.21Zm7.39-24.45c-3.59,0-7.2-.2-10.74-.61l.62-5.47c3.33.38,6.74.57,10.12.57,1.7-.02,3.17-.04,4.76-.12,2.46-5.18,4.61-10.51,6.39-15.88l5.22,1.73c-2.04,6.15-4.54,12.25-7.43,18.14h0s.11,1.21.11,1.21c-2.99.28-6.02.42-9,.42h-.04Zm20.22-2.09l-1.12-5.38c6.11-1.27,12.11-3.15,17.83-5.58l2.15,5.06c-6.05,2.57-12.4,4.56-18.86,5.9Zm-42.12-.48c-1.13-.27-2.26-.57-3.38-.88-5.2-1.47-10.33-3.48-15.25-5.97l2.49-4.91c4.6,2.33,9.39,4.21,14.26,5.58,1.05.3,2.11.57,3.17.83l-1.29,5.35Zm71.12-10.44l-2.72-4.78c5.47-3.11,10.56-6.76,15.15-10.85l3.66,4.1c-4.87,4.35-10.29,8.23-16.09,11.53Zm-99.51-2.2c-5.57-3.81-10.6-8.22-14.94-13.09l4.11-3.66c4.05,4.54,8.74,8.65,13.94,12.22l-3.11,4.54Zm69.77-15.33l-5.34-1.31c1.55-6.29,2.57-12.53,3.04-18.53l5.48.43c-.5,6.3-1.57,12.83-3.19,19.42Zm53.79-2.03l-4.12-3.64c3.8-4.3,7.5-9.22,11.32-15.05l4.6,3.01c-3.97,6.06-7.83,11.19-11.8,15.68Zm-145.44-4.8c-3.74-5.78-6.51-11.91-8.24-18.23l5.3-1.45c1.58,5.77,4.13,11.39,7.56,16.7l-4.62,2.99Zm163.1-20.33l-4.73-2.8c2.23-3.76,4.4-7.58,6.56-11.4l3-5.26,4.77,2.73-2.99,5.24c-2.18,3.85-4.37,7.69-6.62,11.49Zm-73.49-3.37c-.21-6.45-1.12-12.63-2.71-18.35l5.3-1.47c1.71,6.14,2.68,12.75,2.91,19.65l-5.5.18Zm-99.82-5.9c-.07-1.1-.11-2.2-.11-3.31,0-5.55.89-11.16,2.63-16.69l5.24,1.66c-1.58,4.99-2.38,10.05-2.38,15.03,0,.98.03,1.97.1,2.95l-5.49.35Zm188.44-16.88l-4.7-2.86c3.64-5.98,6.89-10.81,10.23-15.22l.73-.96,4.35,3.36-.7.92c-3.23,4.26-6.38,8.94-9.92,14.76Zm-94.94-5.47c-2.57-5.54-6.02-10.63-10.28-15.12l3.99-3.78c4.66,4.93,8.46,10.51,11.27,16.59l-4.99,2.31Zm-81.62-5.6l-4.83-2.63c3.3-6.06,7.5-11.36,12.47-15.77l3.65,4.12c-4.43,3.93-8.34,8.87-11.29,14.29Zm194.15-12.78l-4.02-3.76c4.42-4.73,9.31-9.19,14.51-13.26l3.39,4.33c-4.98,3.89-9.65,8.16-13.88,12.68Zm-130.67-3.62c-5.16-3.69-10.68-6.24-16.39-7.58l1.25-5.35c6.42,1.5,12.59,4.35,18.34,8.46l-3.2,4.47Zm-43.73-3.85l-2.63-4.83c6.23-3.39,12.82-5.22,19.6-5.43l.17,5.5c-5.9.19-11.67,1.79-17.14,4.76Zm197.04-11.46l-3.01-4.61c5.42-3.54,11.2-6.74,17.17-9.51l2.32,4.99c-5.73,2.66-11.28,5.73-16.48,9.13Zm130.45-9.01c-5.33-2.71-10.98-5.03-16.77-6.91l1.69-5.23c6.07,1.96,11.98,4.4,17.57,7.24l-2.49,4.9Zm-104.02-4.27l-1.92-5.16c6.1-2.27,12.42-4.14,18.8-5.57l1.2,5.37c-6.14,1.37-12.22,3.17-18.09,5.35Zm76.88-5.49c-6.04-1.38-12.31-2.33-18.61-2.81l.42-5.48c6.58.5,13.11,1.49,19.42,2.93l-1.22,5.36Zm-48.19-1.81l-.78-5.44c6.49-.93,13.07-1.42,19.56-1.45l.02,5.5c-6.24.03-12.56.5-18.8,1.39Z"/>
</svg>