<?xml version="1.0" encoding="utf-8"?>
<!-- Generator: Adobe Illustrator 25.0.1, SVG Export Plug-In . SVG Version: 6.00 Build 0)  -->
<svg version="1.1" id="Layer_1" xmlns="http://www.w3.org/2000/svg" xmlns:xlink="http://www.w3.org/1999/xlink" x="0px" y="0px"
	 viewBox="0 0 3600 1125" style="enable-background:new 0 0 3600 1125;" xml:space="preserve">
<style type="text/css">
	.st0{clip-path:url(#SVGID_2_);}
	.st1{fill:#007042;}
	.st2{fill:#21813F;}
	.st3{fill:#41933B;}
	.st4{fill:#62A438;}
	.st5{fill:#83B535;}
	.st6{fill:#A3C731;}
	.st7{fill:#C4D82E;}
</style>
<g>
	<defs>
		<rect id="SVGID_1_" width="3600" height="1125"/>
	</defs>
	<clipPath id="SVGID_2_">
		<use xlink:href="#SVGID_1_"  style="overflow:visible;"/>
	</clipPath>
	<g class="st0">
		<g>
			<path class="st1" d="M4380.9,308.1c-120.8,114.7-269.8,194.6-404.4,292.8c-134.6,98.2-260.6,224.2-301.9,385.7
				c-88.8,347.1,236.6,734.6,66.4,1049.8c-97.3,180.1-318.6,249.7-520.9,280.6c-202.4,30.9-419.8,44.1-584,166.3
				c-225.4,167.8-276.5,483.3-447.9,706.1c-215.1,279.7-634.8,378.2-951.9,223.5c-149-72.7-277.8-194.3-440.7-225
				c-248.9-46.9-482.1,131.1-732.6,169.3c-266,40.6-550.4-95.4-685.7-328c-135.3-232.6-113-547,53.8-758.2
				c200.7-254.1,583.7-370.1,669.3-682.4C179.8,1299-49.3,991.4,28.3,701.3C102.7,422.9,419.7,291.5,703.1,239
				c283.4-52.5,596.8-77.3,804.1-277.5c182.8-176.6,238.8-452.3,413.8-636.6c159.8-168.4,401.6-238.8,633.8-238.9
				c232.1-0.1,459.1,62.1,682.8,124C3646.3-677.2,5124.8-398.3,4380.9,308.1L4380.9,308.1z"/>
			<path class="st2" d="M4044.3-2.8c-113.9,108.2-254.4,183.5-381.3,276.1C3536.1,366,3417.2,484.8,3378.3,637
				c-83.7,327.2,223.1,692.7,62.6,989.9c-91.7,169.8-300.4,235.5-491.2,264.6c-190.8,29.1-395.8,41.6-550.6,156.8
				c-212.6,158.3-260.8,455.7-422.4,665.8c-202.9,263.7-598.5,356.6-897.6,210.7c-140.5-68.6-261.9-183.3-415.6-212.2
				c-234.7-44.2-454.6,123.6-690.8,159.7c-250.8,38.3-519-89.9-646.6-309.3c-127.6-219.3-106.6-515.8,50.7-715
				c189.2-239.6,550.4-349,631.1-643.4C83,931.6-133.1,641.6-59.9,368C10.3,105.5,309.2-18.4,576.4-68s562.7-72.9,758.2-261.7
				c172.4-166.5,225.2-426.5,390.2-600.3c150.7-158.8,378.7-225.2,597.6-225.3c218.8-0.1,432.9,58.6,643.9,116.9
				C3351.7-931.8,4745.8-668.8,4044.3-2.8L4044.3-2.8z"/>
			<path class="st3" d="M3707.8-313.7c-107,101.6-239,172.4-358.3,259.4c-119.2,87-230.9,198.7-267.5,341.7
				c-78.6,307.4,209.6,650.8,58.8,930c-86.2,159.6-282.2,221.2-461.5,248.6c-179.3,27.3-371.9,39.1-517.3,147.3
				c-199.7,148.7-245,428.2-396.8,625.5c-190.6,247.7-562.3,335-843.2,198c-132-64.4-246.1-172.2-390.4-199.3
				c-220.5-41.5-427.1,116.1-649,150c-235.7,36-487.6-84.5-607.5-290.6c-119.9-206.1-100.1-484.6,47.7-671.7
				c177.8-225.1,517.1-327.9,592.9-604.5c70.4-256.5-132.6-529-63.9-786c66-246.6,346.8-363,597.8-409.6s528.7-68.4,712.3-245.9
				c161.9-156.5,211.5-400.7,366.5-564c141.6-149.1,355.8-211.5,561.4-211.7c205.6-0.1,406.7,55,604.9,109.8
				C3057-1186.5,4366.8-939.4,3707.8-313.7L3707.8-313.7z"/>
			<path class="st4" d="M3371.2-624.5c-100.1,95.1-223.6,161.3-335.2,242.7c-111.6,81.4-216,185.9-250.2,319.7
				c-73.6,287.6,196.1,608.9,55,870.1c-80.6,149.3-264,206.9-431.8,232.5c-167.7,25.6-347.9,36.5-484,137.9
				c-186.9,139.1-229.2,400.6-371.2,585.2c-178.3,231.8-526.1,313.4-788.9,185.2c-123.5-60.3-230.2-161.1-365.3-186.5
				c-206.3-38.9-399.6,108.6-607.2,140.4c-220.5,33.7-456.2-79-568.3-271.8c-112.2-192.8-93.7-453.4,44.6-628.4
				c166.3-210.6,483.8-306.8,554.7-565.6c65.8-240-124.1-494.9-59.8-735.3C-174.6-529.4,88.1-638.3,323-681.8
				c234.9-43.5,494.6-64,666.4-230c151.5-146.4,197.9-374.8,342.9-527.6c132.4-139.5,332.9-197.9,525.3-198
				c192.4-0.1,380.5,51.5,566,102.7C2762.4-1441.1,3987.8-1210,3371.2-624.5L3371.2-624.5z"/>
			<path class="st5" d="M3034.7-935.4c-93.2,88.5-208.2,150.2-312.1,226c-103.9,75.8-201.1,173.1-233,297.6
				c-68.5,267.8,182.6,566.9,51.2,810.2c-75.1,139-245.9,192.7-402,216.5c-156.2,23.8-324,34-450.7,128.4
				c-174,129.5-213.4,373-345.7,544.9c-166,215.8-489.9,291.8-734.6,172.5c-115-56.1-214.4-150-340.1-173.7
				c-192.1-36.2-372.1,101.2-565.4,130.7c-205.3,31.4-424.8-73.6-529.2-253.1c-104.4-179.5-87.2-422.2,41.5-585.2
				c154.9-196.1,450.5-285.6,516.5-526.6c61.3-223.5-115.5-460.8-55.7-684.7C-267-846.8-22.4-948.2,196.3-988.7
				c218.7-40.6,460.6-59.6,620.5-214.2c141.1-136.3,184.3-349,319.3-491.3c123.3-129.9,310-184.3,489.1-184.4
				c179.1-0.1,354.3,48,527,95.7C2467.8-1695.8,3608.8-1480.5,3034.7-935.4L3034.7-935.4z"/>
			<path class="st6" d="M2698.2-1246.3c-86.4,82-192.8,139.1-289,209.3c-96.2,70.2-186.3,160.3-215.8,275.6
				c-63.4,248,169.1,525,47.5,750.3c-69.5,128.7-227.7,178.5-372.3,200.5c-144.6,22.1-300,31.5-417.4,118.9
				C1290,428.3,1253.5,653.8,1131,813c-153.8,199.9-453.7,270.3-680.3,159.7c-106.5-52-198.5-138.9-315-160.8
				c-177.9-33.5-344.6,93.7-523.6,121c-190.1,29-393.4-68.2-490.1-234.4c-96.7-166.3-80.8-391,38.4-541.9
				C-696-25-422.3-108-361.1-331.1c56.8-207-107-426.8-51.5-634.1c53.2-199,279.8-292.9,482.3-330.4
				c202.5-37.6,426.5-55.2,574.7-198.3C774.9-1620.2,815-1817.2,940-1949c114.2-120.3,287.1-170.7,453-170.8
				c165.9-0.1,328.1,44.4,488,88.6C2173.2-1950.4,3229.8-1751.1,2698.2-1246.3L2698.2-1246.3z"/>
			<path class="st7" d="M2361.6-1557.1c-79.5,75.4-177.4,128-266,192.6c-88.5,64.6-171.4,147.5-198.5,253.6
				c-58.4,228.2,155.6,483.1,43.7,690.4c-64,118.4-209.5,164.2-342.6,184.5c-133.1,20.3-276,29-384,109.4
				c-148.3,110.4-181.9,317.9-294.6,464.3c-141.5,183.9-417.4,248.7-626,147c-98-47.8-182.7-127.8-289.8-148
				C-159.9,305.8-313.3,422.9-478,448c-175,26.7-362-62.7-451-215.7c-89-153-74.3-359.8,35.4-498.6
				c132-167.1,383.9-243.4,440.2-448.8c52.2-190.4-98.4-392.7-47.4-583.5c49-183.1,257.4-269.5,443.8-304.1
				c186.4-34.5,392.5-50.8,528.8-182.5c120.2-116.1,157-297.4,272.1-418.7c105.1-110.7,264.1-157,416.8-157.1
				c152.6-0.1,301.9,40.9,449.1,81.5C1878.5-2205.1,2850.8-2021.7,2361.6-1557.1L2361.6-1557.1z"/>
		</g>
	</g>
</g>
</svg>
