<svg id="visual" viewBox="0 0 900 600" width="900" height="600" xmlns="http://www.w3.org/2000/svg" xmlns:xlink="http://www.w3.org/1999/xlink" version="1.1"><rect x="0" y="0" width="900" height="600" fill="#001220"></rect><path d="M0 409L21.5 404.7C43 400.3 86 391.7 128.8 397.3C171.7 403 214.3 423 257.2 425C300 427 343 411 385.8 404.8C428.7 398.7 471.3 402.3 514.2 407C557 411.7 600 417.3 642.8 424C685.7 430.7 728.3 438.3 771.2 433.2C814 428 857 410 878.5 401L900 392L900 601L878.5 601C857 601 814 601 771.2 601C728.3 601 685.7 601 642.8 601C600 601 557 601 514.2 601C471.3 601 428.7 601 385.8 601C343 601 300 601 257.2 601C214.3 601 171.7 601 128.8 601C86 601 43 601 21.5 601L0 601Z" fill="#fa7268"></path><path d="M0 399L21.5 408.8C43 418.7 86 438.3 128.8 450.3C171.7 462.3 214.3 466.7 257.2 466.7C300 466.7 343 462.3 385.8 458.7C428.7 455 471.3 452 514.2 446.8C557 441.7 600 434.3 642.8 432.5C685.7 430.7 728.3 434.3 771.2 441C814 447.7 857 457.3 878.5 462.2L900 467L900 601L878.5 601C857 601 814 601 771.2 601C728.3 601 685.7 601 642.8 601C600 601 557 601 514.2 601C471.3 601 428.7 601 385.8 601C343 601 300 601 257.2 601C214.3 601 171.7 601 128.8 601C86 601 43 601 21.5 601L0 601Z" fill="#d99342"></path><path d="M0 476L21.5 479.2C43 482.3 86 488.7 128.8 489.5C171.7 490.3 214.3 485.7 257.2 483.3C300 481 343 481 385.8 484.5C428.7 488 471.3 495 514.2 488C557 481 600 460 642.8 454.3C685.7 448.7 728.3 458.3 771.2 465.3C814 472.3 857 476.7 878.5 478.8L900 481L900 601L878.5 601C857 601 814 601 771.2 601C728.3 601 685.7 601 642.8 601C600 601 557 601 514.2 601C471.3 601 428.7 601 385.8 601C343 601 300 601 257.2 601C214.3 601 171.7 601 128.8 601C86 601 43 601 21.5 601L0 601Z" fill="#a7ad4b"></path><path d="M0 505L21.5 503.7C43 502.3 86 499.7 128.8 500.3C171.7 501 214.3 505 257.2 505.2C300 505.3 343 501.7 385.8 500.8C428.7 500 471.3 502 514.2 507.3C557 512.7 600 521.3 642.8 521C685.7 520.7 728.3 511.3 771.2 509.8C814 508.3 857 514.7 878.5 517.8L900 521L900 601L878.5 601C857 601 814 601 771.2 601C728.3 601 685.7 601 642.8 601C600 601 557 601 514.2 601C471.3 601 428.7 601 385.8 601C343 601 300 601 257.2 601C214.3 601 171.7 601 128.8 601C86 601 43 601 21.5 601L0 601Z" fill="#6dbe7c"></path><path d="M0 535L21.5 535.5C43 536 86 537 128.8 539C171.7 541 214.3 544 257.2 549.2C300 554.3 343 561.7 385.8 565.7C428.7 569.7 471.3 570.3 514.2 569.3C557 568.3 600 565.7 642.8 564.7C685.7 563.7 728.3 564.3 771.2 561.8C814 559.3 857 553.7 878.5 550.8L900 548L900 601L878.5 601C857 601 814 601 771.2 601C728.3 601 685.7 601 642.8 601C600 601 557 601 514.2 601C471.3 601 428.7 601 385.8 601C343 601 300 601 257.2 601C214.3 601 171.7 601 128.8 601C86 601 43 601 21.5 601L0 601Z" fill="#24c7b8"></path></svg>