<svg id="visual" viewBox="0 0 900 600" width="900" height="600" xmlns="http://www.w3.org/2000/svg" xmlns:xlink="http://www.w3.org/1999/xlink" version="1.1"><rect x="0" y="0" width="900" height="600" fill="#140021"></rect><path d="M0 232L129 232L129 301L257 301L257 215L386 215L386 255L514 255L514 306L643 306L643 308L771 308L771 216L900 216L900 321L900 0L900 0L771 0L771 0L643 0L643 0L514 0L514 0L386 0L386 0L257 0L257 0L129 0L129 0L0 0Z" fill="#9900ff"></path><path d="M0 192L129 192L129 135L257 135L257 191L386 191L386 223L514 223L514 137L643 137L643 244L771 244L771 157L900 157L900 156L900 0L900 0L771 0L771 0L643 0L643 0L514 0L514 0L386 0L386 0L257 0L257 0L129 0L129 0L0 0Z" fill="#7700c6"></path><path d="M0 65L129 65L129 140L257 140L257 152L386 152L386 98L514 98L514 87L643 87L643 86L771 86L771 106L900 106L900 68L900 0L900 0L771 0L771 0L643 0L643 0L514 0L514 0L386 0L386 0L257 0L257 0L129 0L129 0L0 0Z" fill="#560090"></path></svg>